<?xml version="1.0" encoding="utf-8"?>
<!-- Generator: Adobe Illustrator 18.1.1, SVG Export Plug-In . SVG Version: 6.00 Build 0)  -->
<!DOCTYPE svg PUBLIC "-//W3C//DTD SVG 1.1//EN" "http://www.w3.org/Graphics/SVG/1.1/DTD/svg11.dtd">
<svg version="1.1" id="Layer_1" xmlns="http://www.w3.org/2000/svg" xmlns:xlink="http://www.w3.org/1999/xlink" x="0px" y="0px"
	 width="647px" height="59.1px" viewBox="-72 277.9 647 59.1" enable-background="new -72 277.9 647 59.1" xml:space="preserve">
<g>
	<g>
		<path fill="#CCCCCC" d="M-57.5,313.4v-19.1h4v19.2c0,3,3.3,4.5,6.2,4.5s6.1-1.5,6.1-4.5v-19.2h4v19.2c0,5.6-5.4,8.5-10.1,8.5
			C-52.2,321.9-57.5,319-57.5,313.4z"/>
		<path fill="#CCCCCC" d="M-34.5,321.7v-27.5h3.1l13.4,19.3v-19.3h3.9v27.4h-3.2l-13.3-19.1v19.2H-34.5z"/>
		<path fill="#CCCCCC" d="M1.4,298.2h-5.1v19.5h5.1v4h-14.1v-4h5.1v-19.5h-5.1v-3.9H1.5L1.4,298.2L1.4,298.2z"/>
		<path fill="#CCCCCC" d="M6.6,298c2.5-2.5,6-4.2,9.9-4.2s7.4,1.6,9.9,4.2c2.5,2.5,4.1,6,4.1,9.9s-1.6,7.4-4.1,9.9
			c-2.5,2.6-6,4.2-9.9,4.2c-3.8,0-7.4-1.6-9.9-4.2c-2.5-2.5-4.1-6-4.1-9.9S4.1,300.6,6.6,298z M23.5,300.8c-1.8-1.8-4.4-3-7.1-3
			s-5.2,1.1-7,3c-1.8,1.8-2.9,4.3-2.9,7.1s1.1,5.3,2.9,7.1c1.8,1.8,4.3,3,7,3s5.3-1.1,7.1-3c1.8-1.8,2.9-4.3,2.9-7.1
			C26.4,305.1,25.3,302.6,23.5,300.8z"/>
		<path fill="#CCCCCC" d="M32.9,321.7v-27.5H36l13.4,19.3v-19.3h3.9v27.4h-3.1L37,302.4v19.2h-4.1V321.7z"/>
		<path fill="#CCCCCC" d="M73.1,298c2.5-2.5,6-4.2,9.9-4.2c3.9,0,7.4,1.6,9.9,4.2c2.5,2.5,4.1,6,4.1,9.9s-1.6,7.4-4.1,9.9
			c-2.5,2.6-6,4.2-9.9,4.2c-3.8,0-7.4-1.6-9.9-4.2c-2.5-2.5-4.1-6-4.1-9.9S70.7,300.6,73.1,298z M90.1,300.8c-1.8-1.8-4.4-3-7.1-3
			s-5.2,1.1-7,3c-1.8,1.8-2.9,4.3-2.9,7.1s1.1,5.3,2.9,7.1c1.8,1.8,4.3,3,7,3s5.3-1.1,7.1-3c1.8-1.8,2.9-4.3,2.9-7.1
			C93,305.1,91.9,302.6,90.1,300.8z"/>
		<path fill="#CCCCCC" d="M103.3,321.7h-4v-27.4h16.4v4h-12.4v7.6h11v4h-11V321.7z"/>
		<path fill="#CCCCCC" d="M134.3,298.2c2.4-2.5,5.8-4.1,9.5-4.1c6.3,0,11.2,3.9,12.8,10.1h-3.9c-1.5-4.1-4.8-6.2-8.9-6.2
			c-2.6,0-5,1.1-6.7,2.9s-2.8,4.2-2.8,7.1c0,2.7,1.1,5.2,2.8,7s4.1,2.9,6.7,2.9c4.2,0,7.7-2.4,9.1-6.5h3.9
			c-1.6,6.2-6.6,10.5-13,10.5c-3.7,0-7.1-1.6-9.5-4.1s-3.9-6-3.9-9.8C130.4,304.1,132,300.7,134.3,298.2z"/>
		<path fill="#CCCCCC" d="M162.1,298c2.5-2.5,6-4.2,9.9-4.2s7.4,1.6,9.9,4.2c2.5,2.5,4.1,6,4.1,9.9s-1.6,7.4-4.1,9.9
			c-2.5,2.6-6,4.2-9.9,4.2c-3.8,0-7.4-1.6-9.9-4.2c-2.5-2.5-4.1-6-4.1-9.9S159.6,300.6,162.1,298z M179.1,300.8
			c-1.8-1.8-4.4-3-7.1-3c-2.7,0-5.2,1.1-7,3c-1.8,1.8-2.9,4.3-2.9,7.1s1.1,5.3,2.9,7.1c1.8,1.8,4.3,3,7,3s5.3-1.1,7.1-3
			c1.8-1.8,2.9-4.3,2.9-7.1C182,305.1,180.8,302.6,179.1,300.8z"/>
		<path fill="#CCCCCC" d="M188.4,321.7v-27.5h3.1l13.4,19.3v-19.3h3.9v27.4h-3.1l-13.2-19.2v19.2h-4.1V321.7z"/>
		<path fill="#CCCCCC" d="M214.9,298.2c2.4-2.5,5.8-4.1,9.5-4.1c6.3,0,11.2,3.9,12.8,10.1h-3.9c-1.5-4.1-4.8-6.2-8.9-6.2
			c-2.6,0-5,1.1-6.7,2.9s-2.8,4.2-2.8,7.1c0,2.7,1.1,5.2,2.8,7s4.1,2.9,6.7,2.9c4.2,0,7.7-2.4,9.1-6.5h3.9
			c-1.6,6.2-6.6,10.5-13,10.5c-3.7,0-7.1-1.6-9.5-4.1s-3.9-6-3.9-9.8C211,304.1,212.6,300.7,214.9,298.2z"/>
		<path fill="#CCCCCC" d="M243.2,317.7h12.7v4h-16.7v-27.4h16.7v4h-12.7v7.6h12.4v4h-12.4L243.2,317.7L243.2,317.7z"/>
		<path fill="#CCCCCC" d="M263.1,307.7h4.6c3.3,0,5-2.4,5-4.8s-1.6-4.7-5-4.7h-6.1v23.4h-3.9v-27.4h10c6,0,8.9,4.4,8.9,8.7
			c0,3.9-2.4,7.6-7.1,8.4l8.7,10.3h-5.1l-10-12V307.7z"/>
		<path fill="#CCCCCC" d="M278.5,321.7v-27.5h3.1l13.4,19.3v-19.3h3.9v27.4h-3.2l-13.2-19.2v19.2h-4V321.7z"/>
		<path fill="#CCCCCC" d="M305.4,317.7h12.7v4h-16.7v-27.4h16.7v4h-12.7v7.6h12.4v4h-12.4V317.7z"/>
		<path fill="#CCCCCC" d="M329.8,294.2c9,0,13.5,6.9,13.5,13.7c0,6.9-4.5,13.7-13.5,13.7H320v-27.4L329.8,294.2L329.8,294.2z
			 M329.8,317.7c6.3,0,9.6-4.9,9.6-9.7c0-4.9-3.2-9.8-9.6-9.8h-5.9v19.5H329.8z"/>
		<path fill="#CCCCCC" d="M374.2,301.2c-0.5-2.5-3.2-3.5-5.6-3.5c-1.8,0-3.9,0.7-5,2.1c-0.5,0.7-0.7,1.6-0.7,2.5
			c0.2,2.8,3.3,3.2,6.2,3.4c3.8,0.5,8.4,1.5,9.5,5.8c0.1,0.6,0.2,1.3,0.2,1.8c0,5.3-5.3,8.3-10.2,8.3c-4.2,0-9.4-2.5-9.9-7.4v-0.7
			l4-0.1v0.6v-0.2c0.3,2.5,3.4,3.9,5.9,3.9c2.9,0,6.2-1.6,6.2-4.5c0-0.3,0-0.6-0.1-0.9c-0.5-2.1-3.3-2.4-6-2.7
			c-4.3-0.4-9.3-1.4-9.7-7.1l0,0c-0.2-1.8,0.3-3.7,1.5-5.2c1.8-2.4,5.1-3.6,8.3-3.6c4.2,0,8.6,2.2,9.3,7.2L374.2,301.2z"/>
		<path fill="#CCCCCC" d="M384.4,298.2c2.4-2.5,5.8-4.1,9.5-4.1c6.3,0,11.2,3.9,12.8,10.1h-4c-1.5-4.1-4.8-6.2-8.9-6.2
			c-2.6,0-5,1.1-6.7,2.9s-2.8,4.2-2.8,7.1c0,2.7,1.1,5.2,2.8,7c1.7,1.8,4.1,2.9,6.7,2.9c4.2,0,7.7-2.4,9.1-6.5h3.9
			c-1.6,6.2-6.6,10.5-13,10.5c-3.7,0-7.1-1.6-9.5-4.1s-3.9-6-3.9-9.8C380.4,304.1,382,300.7,384.4,298.2z"/>
		<path fill="#CCCCCC" d="M421.7,298.2h-5.1v19.5h5.1v4h-14.2v-4h5.1v-19.5h-5.1v-3.9h14.2V298.2z"/>
		<path fill="#CCCCCC" d="M427.3,317.7H440v4h-16.7v-27.4H440v4h-12.7v7.6h12.4v4h-12.4V317.7z"/>
		<path fill="#CCCCCC" d="M441.8,321.7v-27.5h3.1l13.4,19.3v-19.3h3.9v27.4h-3.1l-13.2-19.2v19.2h-4.1L441.8,321.7L441.8,321.7z"/>
		<path fill="#CCCCCC" d="M471.7,321.8v-23.9h-8.3v-3.7h20.5v3.7h-8.2v23.9H471.7z"/>
		<path fill="#CCCCCC" d="M500.2,298.2h-5.1v19.5h5.1v4H486v-4h5.1v-19.5H486v-3.9h14.2V298.2z"/>
		<path fill="#CCCCCC" d="M517,301.2c-0.5-2.5-3.2-3.5-5.6-3.5c-1.8,0-3.9,0.7-5,2.1c-0.5,0.7-0.7,1.6-0.7,2.5
			c0.2,2.8,3.3,3.2,6.2,3.4c3.8,0.5,8.4,1.5,9.5,5.8c0.1,0.6,0.2,1.3,0.2,1.8c0,5.3-5.3,8.3-10.2,8.3c-4.2,0-9.4-2.5-9.9-7.4v-0.7
			l4-0.1v0.6v-0.2c0.3,2.5,3.4,3.9,5.9,3.9c2.9,0,6.2-1.6,6.2-4.5c0-0.3,0-0.6-0.1-0.9c-0.5-2.1-3.3-2.4-6-2.7
			c-4.3-0.4-9.3-1.4-9.7-7.1l0,0c-0.2-1.8,0.3-3.7,1.5-5.2c1.8-2.4,5.1-3.6,8.3-3.6c4.2,0,8.6,2.2,9.3,7.2L517,301.2z"/>
		<path fill="#CCCCCC" d="M530.6,321.8v-23.9h-8.3v-3.7h20.5v3.7h-8.3v23.9H530.6z"/>
		<path fill="#CCCCCC" d="M559.6,301.2c-0.5-2.5-3.2-3.5-5.6-3.5c-1.8,0-3.9,0.7-5,2.1c-0.5,0.7-0.7,1.6-0.7,2.5
			c0.2,2.8,3.3,3.2,6.2,3.4c3.8,0.5,8.4,1.5,9.5,5.8c0.1,0.6,0.2,1.3,0.2,1.8c0,5.3-5.3,8.3-10.2,8.3c-4.2,0-9.4-2.5-9.9-7.4v-0.7
			l4-0.1v0.6v-0.2c0.3,2.5,3.4,3.9,5.9,3.9c2.9,0,6.2-1.6,6.2-4.5c0-0.3,0-0.6-0.1-0.9c-0.5-2.1-3.3-2.4-6-2.7
			c-4.3-0.4-9.3-1.4-9.7-7.1l0,0c-0.2-1.8,0.3-3.7,1.5-5.2c1.8-2.4,5.1-3.6,8.3-3.6c4.2,0,8.6,2.2,9.3,7.2L559.6,301.2z"/>
	</g>
	<g>
		<path fill="#CCCCCC" d="M-71.7,336.2v-57.6h13.2v4h-8.2v49.7h8.2v4h-13.2V336.2z"/>
	</g>
	<g>
		<path fill="#CCCCCC" d="M561.5,336.2v-4h8.2v-49.7h-8.2v-4h13.2v57.6h-13.2V336.2z"/>
	</g>
</g>
</svg>
