<?xml version="1.0" encoding="utf-8"?>
<!-- Generator: Adobe Illustrator 18.0.0, SVG Export Plug-In . SVG Version: 6.00 Build 0)  -->
<!DOCTYPE svg PUBLIC "-//W3C//DTD SVG 1.1//EN" "http://www.w3.org/Graphics/SVG/1.1/DTD/svg11.dtd">
<svg version="1.1" id="Layer_1" xmlns="http://www.w3.org/2000/svg" xmlns:xlink="http://www.w3.org/1999/xlink" x="0px" y="0px"
	 viewBox="0 0 112 116" enable-background="new 0 0 112 116" xml:space="preserve">
<path fill="#2C3E50" d="M55.7,101.2C32,101.2,12.8,82,12.8,58.3c0-23.7,19.2-42.9,42.9-42.9s42.9,19.2,42.9,42.9
	C98.5,82,79.3,101.2,55.7,101.2z M55.7,20.3c-20.9,0-38,17.1-38,38s17.1,38,38,38s38-17.1,38-38C93.8,37.4,76.6,20.3,55.7,20.3z"/>
<path fill="#2C3E50" d="M43.3,86.3h-0.2L39.5,86c-0.4,0-0.8-0.2-1.1-0.4L36,83.7c-0.6-0.6-4.5-4.9-4.9-10.2c-0.2-1.3,0-2.8,0-4.1
	c0-2.3,0-4.7-0.8-5.5c-0.4-0.4-0.9-0.8-1.5-1.1c-1.5-0.9-3.8-2.1-4.1-6.2c-0.2-0.9-0.2-1.9-0.4-2.8c-0.4-2.1-0.8-4.3,0.4-6.4h-0.2
	c-0.8,0-1.3-0.4-1.9-0.9l-0.4-0.6c-0.2-0.2-0.4-0.6-0.4-0.8l-0.2-0.6l-0.8-0.2c-0.6-0.2-1.1-0.4-1.5-0.9l-1.1-1.7
	c-0.2-0.4-0.4-0.9-0.4-1.3v-0.6c0-1.3,1.1-2.6,2.6-2.4c0.2-0.2,0.2-0.4,0.4-0.6l0.2-0.4c0.4-0.6,0.6-0.9,0.9-1.3
	c0.2-0.2,0.2-0.4,0.4-0.6c0.2-0.6,0.4-0.9,0.8-1.5c0.2-0.4,1.5-1.9,1.5-1.9c0.2-0.4,0.6-0.6,0.9-0.8c1.3-0.6,2.3-0.6,2.8-0.4v-0.4
	c0.2-1.1,1.3-1.9,2.3-1.9h0.2l1.3-0.8c0-0.8,0.4-1.7,1.1-2.1c0.6-0.4,1.3-0.4,1.9-0.4l0,0c0.2-0.4,0.6-0.6,0.9-0.8l1.5-0.8
	c0.4-0.2,0.8-0.2,0.9-0.2h1.3c0-0.2,0-0.2,0-0.4c0.4-2.1,1.7-2.6,2.1-2.6c0,0,0,0,0.2,0l0,0c0-0.8,0.4-1.5,0.9-1.9
	c0.4-0.4,0.9-0.8,2.1-0.8l0.2-0.2c0.9-0.9,2.4-0.8,3.4,0.2l0.9,1.1c0.8,0.8,0.8,1.9,0.4,2.8c-0.4,0.6-0.8,0.9-1.5,1.1l0,0
	c0.2,0.9-0.2,2.1-0.8,2.8c-1.1,1.3-2.8,1.5-3.2,1.5c-0.2,0-0.6,0-0.8,0c-0.4,0.9-1.3,1.5-2.3,1.5H39l-0.6,0.2l-0.8,0.9
	c-0.4,0.4-0.8,0.8-1.3,0.9c-0.2,0.6-0.8,0.9-1.3,1.3l-3,1.5c-0.2,0.4-0.4,0.8-0.4,1.1c0,0.2,0,1.1,0,1.1c0,0.9-0.6,1.9-1.3,2.3
	c-0.2,0-0.4,0.2-0.6,0.2c-0.8,0.4-1.5,0.4-2.1,0.2c0,0.6,0,1.1-0.2,1.5c0.2,0.4,0.4,0.6,0.4,0.8c1.3-0.6,2.4-0.6,2.8-0.6l0,0
	c0.6-0.8,1.1-0.9,1.5-1.1c1.7-0.4,2.8,1.1,3,1.5c0.2,0.2,0.2,0.4,0.4,0.6c0.6,0,0.9,0,1.5,0.2c0.8,0,1.9,0.2,2.8,1.1
	c0.2,0.2,0.4,0.4,0.4,0.6c0.4,0,0.9,0.2,1.3,0.4C42,43,42,43,42.6,43.4c0.6,0,1.5-0.2,2.4,0.6c0.6,0.4,0.9,1.3,1.1,2.1
	c0,0.2,0,0.6,0,0.8c0.4,0,0.6,0.2,0.9,0.4c0.6,0.2,1.5,0.2,2.3,1.1l0.2,0.2c0.2,0.2,0.4,0.2,0.6,0.4c0,0,0.2,0,0.4-0.2
	c0.8-0.2,1.9-0.2,3,0.6l0,0c1.1,0,2.1,0.4,2.8,1.5l0.4,0.6c0.4,0.4,0.4,0.6,0.6,1.1c0.6,1.3,0.6,1.9-3.6,6.8l0.6,1.7
	c0.2,0.8,0,1.5-0.4,2.1l-1.5,2.1c-0.4,0.6-1.5,1.9-2.8,2.1c-0.4,0.2-1.1,0.8-1.7,1.1v1.3c0,0.6-0.2,0.9-0.4,1.3l-1.3,1.9
	c-0.2,0.2-0.4,0.6-0.6,0.6c0,0-0.6,0.4-0.9,0.6c0,0.2-0.2,0.4-0.4,0.6c-0.2,0.2-0.4,0.6-0.4,0.8c-0.4,0.9-1.3,1.5-1.9,1.7
	c0,0.2,0,0.2-0.2,0.4c0.4,0.4,0.6,0.9,0.6,1.5v0.6l0.2,0.2c0.2,0.2,0.4,0.4,0.6,0.6l1.5,2.3c0.6,0.8,0.6,1.9,0,2.6
	C45,86,44.2,86.3,43.3,86.3z M30.1,44.7c0,0.2,0,0.2,0.2,0.4c0.4,1.3,0,2.8-1.5,4.3c-0.6,0.6-0.6,1.3-0.2,3.8
	c0.2,0.9,0.4,2.1,0.6,3.2c0.2,1.5,0.6,1.7,1.7,2.4c0.8,0.4,1.5,0.9,2.4,1.7c2.3,2.1,2.3,5.5,2.3,9c0,1.1,0,2.4,0,3.8
	c0.2,1.5,0.8,3.2,1.5,4.3v-0.2c0,0,0.4-0.9,0.4-1.3c0.2-0.8,0.6-1.5,0.9-2.1c0.4-0.6,1.1-0.9,1.5-1.1c0.2-0.2,0.2-0.4,0.4-0.6
	l0.4-0.6c0.2-0.6,0.6-0.9,2.1-2.1l0.6-0.8v-1.7c0-0.8,0.4-1.5,0.9-1.9c2.4-2.1,3.8-2.6,4.5-2.8l0.8-1.1L49,59.6
	c-0.2-0.8,0-1.7,0.6-2.3c0.9-1.1,1.9-2.3,2.6-3.2c-0.4-0.2-0.6-0.4-0.9-0.6c-0.6,0-0.9,0-1.5,0c-1.1-0.2-1.7-0.4-2.1-0.8
	c-0.4-0.2-0.9-0.4-1.3-0.9c-0.4,0-0.8-0.2-1.3-0.4c-0.2,0-0.2,0-0.4,0c-2.4,0.6-3.2-0.9-3.4-1.5c-0.2-0.6-0.2-1.1,0-1.9l0,0
	c-0.9-0.4-1.1-0.6-1.3-0.6c-0.9,0.2-2.1-0.2-2.6-1.1c0-0.2-0.2-0.4-0.4-0.6c-0.4,0-0.8,0-0.9-0.2c-0.8,0-0.9,0-1.3,0
	c-0.6,0-1.3-0.2-2.1-0.6c-0.6,0.2-0.9,0-1.5,0c-0.2,0-0.4-0.2-0.6-0.4C30.7,44.5,30.5,44.5,30.1,44.7z"/>
<path fill="#2C3E50" d="M88.3,79.7H86c-1.3,0-2.4-1.1-2.4-2.4v-1.5c0-0.8,0.2-1.5,0.6-2.1V73c0-0.6,0.2-1.1,0.6-1.7
	c0.2-0.2,0.6-0.6,0.8-0.8c-0.4-0.6-0.6-0.9-0.8-1.5c-0.2-0.9,0-1.9,0-2.4c0.2-0.6,0.4-1.7,0.4-1.7c0-0.4,0.2-0.6,0.6-0.9l0.4-0.6
	c-0.6-1.1-0.6-1.5-0.6-1.9c0-0.6,0.2-0.9,0.8-1.9l-0.9-3.2c0-0.2-0.2-0.6-0.2-0.8v-2.4l-0.8-0.6c-0.2,0-0.2,0-0.4-0.2
	c-0.8,0.2-1.5,0-1.9,0c-1.1-0.4-2.1-0.6-2.8-1.1c-0.6,0-1.1,0-1.1,0c-2.8-0.6-3.4-0.9-4-1.5c-0.4-0.4-0.4-0.8-0.9-2.3
	c-0.2-0.4-0.4-0.9-0.4-1.3c-0.6-0.6-1.3-1.3-2.4-2.6c-0.4-0.6-0.8-1.1-0.6-1.9l0.2-1.5l0.8-4c0-0.2,0.2-0.4,0.2-0.6l1.1-2.1
	c0.2-0.2,0.2-0.4,0.4-0.6c-0.2-0.2-0.6-0.4-0.8-0.6c-1.5-1.7-1.7-2.3-1.7-2.6c-0.2-0.9,0.2-1.7,0.4-2.1c0,0,0,0,0-0.2l-1.5-0.4
	c-0.8-0.2-1.5-0.8-1.7-1.5c0-0.2-0.2-0.4-0.2-0.6h-1.3c-0.9,0-1.7-0.6-2.1-1.3c-0.4-0.8-0.4-1.7,0-2.4l0.9-1.5
	c0.8-1.1,2.3-1.5,3.4-0.8c0.6,0.4,0.9,0.8,0.9,1.3h0.2l2.1,0.8c0.8,0.2,1.3,0.9,1.5,1.5c0,0.2,0,0.2,0,0.4l0,0
	c1.7,0.4,2.8,1.1,3.2,2.3c0.2,0.6,0,1.1-0.2,1.7c0.9-0.8,2.1-0.8,2.4-0.8c0.6,0,0.6,0,5.3,1.9c0.4,0.2,0.6,0.2,0.8,0.6l3.6,3.4
	c0.6,0.6,0.8,1.3,0.8,2.1s-0.6,1.5-1.1,1.9c-1.1,0.8-2.8,1.7-4.1,0.9c-0.8-0.2-3.2-0.6-5.3-0.8l-2.4,0.6l-0.4,0.9l-0.8,3.8
	c0.6,0.6,1.1,1.3,1.5,1.7c0.8,0.6,1.1,1.5,1.7,3.2c0,0.2,0,0.2,0.2,0.4c0.2,0,0.4,0.2,0.6,0.2c1.3,0,2.6,0.2,3.6,0.9
	c0.4,0.2,1.1,0.4,1.1,0.4c-0.2,0,0,0,0.2,0s1.1-0.4,3,0.4c0.2,0,0.4,0.2,0.6,0.2l2.1,1.3c0.8,0.4,1.1,1.1,1.1,2.1v3.4l1.3,4
	c0.2,0.8,0.2,1.5-0.4,2.1c0,0-0.2,0.2-0.2,0.4c0.2,0.6,0.4,0.9,0.4,0.9c0.4,0.8,0.2,1.9-0.4,2.4l-1.1,1.3c0,0.2-0.2,0.4-0.2,0.6
	c0,0.6-0.2,0.8-0.2,0.9c0.6,0.8,1.3,1.5,1.1,2.8l2.3-3.8c0.8-1.1,2.3-1.5,3.4-0.8c1.1,0.8,1.5,2.1,0.8,3.4l-4.3,7.2
	c-0.2,0.2-0.4,0.4-0.6,0.6l-2.3,2.1C89.4,79.4,88.9,79.7,88.3,79.7z"/>
<path fill="#2C3E50" d="M43.3,99.1c-0.9,0-1.7-0.6-2.1-1.3c-0.6-1.1-0.2-2.6,1.1-3.2l6.4-3.2c0.4-0.2,0.8-0.2,1.3-0.2
	c3.8,0.4,5.8,0.6,6.8,0.9c0.4,0,0.8,0,1.1,0l3.6-0.8c3.4-0.2,3.8,0,4.1,0s2.6,0.2,2.6,0.2c0.2,0,0.4,0,0.6,0.2l4.3,1.3
	c1.3,0.4,1.9,1.7,1.5,3c-0.4,1.3-1.7,1.9-3,1.5l-4-1.3c-2.8-0.4-3.2-0.4-3.4-0.4c-0.2,0-1.9,0.2-1.9,0.2l-3.4,0.8
	c-1.3,0.2-2.8,0.2-4-0.2c-0.8-0.2-2.8-0.4-4.5-0.6l-5.8,3C44.1,99.1,43.7,99.1,43.3,99.1z"/>
</svg>
