<?xml version="1.0" encoding="utf-8"?>
<!-- Generator: Adobe Illustrator 18.1.1, SVG Export Plug-In . SVG Version: 6.00 Build 0)  -->
<!DOCTYPE svg PUBLIC "-//W3C//DTD SVG 1.1//EN" "http://www.w3.org/Graphics/SVG/1.1/DTD/svg11.dtd">
<svg version="1.1" id="Layer_1" xmlns="http://www.w3.org/2000/svg" xmlns:xlink="http://www.w3.org/1999/xlink" x="0px" y="0px"
	 width="647px" height="59.1px" viewBox="224 21.9 647 59.1" enable-background="new 224 21.9 647 59.1" xml:space="preserve">
<g>
	<path fill="#838588" d="M238.8,57.4V38.3h4v19.2c0,3,3.3,4.5,6.2,4.5s6.1-1.5,6.1-4.5V38.3h4v19.2c0,5.6-5.4,8.5-10.1,8.5
		C244.1,65.9,238.8,63,238.8,57.4z"/>
	<path fill="#838588" d="M261.8,65.7V38.2h3.1l13.4,19.3V38.2h3.9v27.4H279l-13.3-19.1v19.2C265.7,65.7,261.8,65.7,261.8,65.7z"/>
	<path fill="#838588" d="M297.7,42.2h-5.1v19.5h5.1v4h-14.1v-4h5.1V42.2h-5.1v-3.9h14.2L297.7,42.2L297.7,42.2z"/>
	<path fill="#838588" d="M302.9,42c2.5-2.5,6-4.2,9.9-4.2c3.9,0,7.4,1.6,9.9,4.2c2.5,2.5,4.1,6,4.1,9.9s-1.6,7.4-4.1,9.9
		c-2.5,2.6-6,4.2-9.9,4.2c-3.8,0-7.4-1.6-9.9-4.2c-2.5-2.5-4.1-6-4.1-9.9S300.4,44.6,302.9,42z M319.8,44.8c-1.8-1.8-4.4-3-7.1-3
		c-2.7,0-5.2,1.1-7,3c-1.8,1.8-2.9,4.3-2.9,7.1s1.1,5.3,2.9,7.1c1.8,1.8,4.3,3,7,3c2.7,0,5.3-1.1,7.1-3c1.8-1.8,2.9-4.3,2.9-7.1
		S321.6,46.6,319.8,44.8z"/>
	<path fill="#838588" d="M329.2,65.7V38.2h3.1l13.4,19.3V38.2h3.9v27.4h-3.1l-13.2-19.2v19.2L329.2,65.7L329.2,65.7z"/>
	<path fill="#838588" d="M369.4,42c2.5-2.5,6-4.2,9.9-4.2s7.4,1.6,9.9,4.2c2.5,2.5,4.1,6,4.1,9.9s-1.6,7.4-4.1,9.9
		c-2.5,2.6-6,4.2-9.9,4.2c-3.8,0-7.4-1.6-9.9-4.2c-2.5-2.5-4.1-6-4.1-9.9S367,44.6,369.4,42z M386.4,44.8c-1.8-1.8-4.4-3-7.1-3
		s-5.2,1.1-7,3c-1.8,1.8-2.9,4.3-2.9,7.1s1.1,5.3,2.9,7.1s4.3,3,7,3s5.3-1.1,7.1-3c1.8-1.8,2.9-4.3,2.9-7.1S388.2,46.6,386.4,44.8z"
		/>
	<path fill="#838588" d="M399.6,65.7h-4V38.3H412v4h-12.4v7.6h11v4h-11V65.7z"/>
	<path fill="#838588" d="M430.6,42.2c2.4-2.5,5.8-4.1,9.5-4.1c6.3,0,11.2,3.9,12.8,10.1H449c-1.5-4.1-4.8-6.2-8.9-6.2
		c-2.6,0-5,1.1-6.7,2.9c-1.7,1.8-2.8,4.2-2.8,7.1c0,2.7,1.1,5.2,2.8,7c1.7,1.8,4.1,2.9,6.7,2.9c4.2,0,7.7-2.4,9.1-6.5h3.9
		c-1.6,6.2-6.6,10.5-13,10.5c-3.7,0-7.1-1.6-9.5-4.1s-3.9-6-3.9-9.8C426.7,48.1,428.3,44.7,430.6,42.2z"/>
	<path fill="#838588" d="M458.4,42c2.5-2.5,6-4.2,9.9-4.2s7.4,1.6,9.9,4.2c2.5,2.5,4.1,6,4.1,9.9s-1.6,7.4-4.1,9.9
		c-2.5,2.6-6,4.2-9.9,4.2c-3.8,0-7.4-1.6-9.9-4.2c-2.5-2.5-4.1-6-4.1-9.9S455.9,44.6,458.4,42z M475.4,44.8c-1.8-1.8-4.4-3-7.1-3
		s-5.2,1.1-7,3c-1.8,1.8-2.9,4.3-2.9,7.1s1.1,5.3,2.9,7.1s4.3,3,7,3s5.3-1.1,7.1-3c1.8-1.8,2.9-4.3,2.9-7.1S477.1,46.6,475.4,44.8z"
		/>
	<path fill="#838588" d="M484.7,65.7V38.2h3.1l13.4,19.3V38.2h3.9v27.4H502l-13.2-19.2v19.2L484.7,65.7L484.7,65.7z"/>
	<path fill="#838588" d="M511.2,42.2c2.4-2.5,5.8-4.1,9.5-4.1c6.3,0,11.2,3.9,12.8,10.1h-3.9c-1.5-4.1-4.8-6.2-8.9-6.2
		c-2.6,0-5,1.1-6.7,2.9c-1.7,1.8-2.8,4.2-2.8,7.1c0,2.7,1.1,5.2,2.8,7c1.7,1.8,4.1,2.9,6.7,2.9c4.2,0,7.7-2.4,9.1-6.5h3.9
		c-1.6,6.2-6.6,10.5-13,10.5c-3.7,0-7.1-1.6-9.5-4.1c-2.4-2.5-3.9-6-3.9-9.8C507.3,48.1,508.9,44.7,511.2,42.2z"/>
	<path fill="#838588" d="M539.5,61.7h12.7v4h-16.7V38.3h16.7v4h-12.7v7.6h12.4v4h-12.4V61.7z"/>
	<path fill="#838588" d="M559.4,51.7h4.6c3.3,0,5-2.4,5-4.8s-1.6-4.7-5-4.7h-6.1v23.4H554V38.2h10c6,0,8.9,4.4,8.9,8.7
		c0,3.9-2.4,7.6-7.1,8.4l8.7,10.3h-5.1l-10-12V51.7z"/>
	<path fill="#838588" d="M574.8,65.7V38.2h3.1l13.4,19.3V38.2h3.9v27.4H592l-13.2-19.2v19.2L574.8,65.7L574.8,65.7z"/>
	<path fill="#838588" d="M601.7,61.7h12.7v4h-16.7V38.3h16.7v4h-12.7v7.6h12.4v4h-12.4V61.7z"/>
	<path fill="#838588" d="M626.1,38.3c9,0,13.5,6.9,13.5,13.7c0,6.9-4.5,13.7-13.5,13.7h-9.8V38.3H626.1z M626.1,61.7
		c6.3,0,9.6-4.9,9.6-9.7c0-4.9-3.2-9.8-9.6-9.8h-5.9v19.5H626.1z"/>
	<path fill="#838588" d="M670.5,45.3c-0.5-2.5-3.2-3.5-5.6-3.5c-1.8,0-3.9,0.7-5,2.1c-0.5,0.7-0.7,1.6-0.7,2.5
		c0.2,2.8,3.3,3.2,6.2,3.4c3.8,0.5,8.4,1.5,9.5,5.8c0.1,0.6,0.2,1.3,0.2,1.8c0,5.3-5.3,8.3-10.2,8.3c-4.2,0-9.4-2.5-9.9-7.4v-0.7
		l4-0.1v0.6v-0.2c0.3,2.5,3.4,3.9,5.9,3.9c2.9,0,6.2-1.6,6.2-4.5c0-0.3,0-0.6-0.1-0.9c-0.5-2.1-3.3-2.4-6-2.7
		c-4.3-0.4-9.3-1.4-9.7-7.1l0,0c-0.2-1.8,0.3-3.7,1.5-5.2c1.8-2.4,5.1-3.6,8.3-3.6c4.2,0,8.6,2.2,9.3,7.2L670.5,45.3z"/>
	<path fill="#838588" d="M680.7,42.2c2.4-2.5,5.8-4.1,9.5-4.1c6.3,0,11.2,3.9,12.8,10.1h-4c-1.5-4.1-4.8-6.2-8.9-6.2
		c-2.6,0-5,1.1-6.7,2.9c-1.7,1.8-2.8,4.2-2.8,7.1c0,2.7,1.1,5.2,2.8,7c1.7,1.8,4.1,2.9,6.7,2.9c4.2,0,7.7-2.4,9.1-6.5h3.9
		c-1.6,6.2-6.6,10.5-13,10.5c-3.7,0-7.1-1.6-9.5-4.1c-2.4-2.5-3.9-6-3.9-9.8C676.7,48.1,678.3,44.7,680.7,42.2z"/>
	<path fill="#838588" d="M718,42.2h-5.1v19.5h5.1v4h-14.2v-4h5.1V42.2h-5.1v-3.9H718V42.2z"/>
	<path fill="#838588" d="M723.6,61.7h12.7v4h-16.7V38.3h16.7v4h-12.7v7.6H736v4h-12.4V61.7z"/>
	<path fill="#838588" d="M738.1,65.7V38.2h3.1l13.4,19.3V38.2h3.9v27.4h-3.1l-13.2-19.2v19.2L738.1,65.7L738.1,65.7z"/>
	<path fill="#838588" d="M768,65.8V41.9h-8.3v-3.7h20.5v3.7H772v23.9H768z"/>
	<path fill="#838588" d="M796.5,42.2h-5.1v19.5h5.1v4h-14.2v-4h5.1V42.2h-5.1v-3.9h14.2V42.2z"/>
	<path fill="#838588" d="M813.3,45.3c-0.5-2.5-3.2-3.5-5.6-3.5c-1.8,0-3.9,0.7-5,2.1c-0.5,0.7-0.7,1.6-0.7,2.5
		c0.2,2.8,3.3,3.2,6.2,3.4c3.8,0.5,8.4,1.5,9.5,5.8c0.1,0.6,0.2,1.3,0.2,1.8c0,5.3-5.3,8.3-10.2,8.3c-4.2,0-9.4-2.5-9.9-7.4v-0.7
		l4-0.1v0.6v-0.2c0.3,2.5,3.4,3.9,5.9,3.9c2.9,0,6.2-1.6,6.2-4.5c0-0.3,0-0.6-0.1-0.9c-0.5-2.1-3.3-2.4-6-2.7
		c-4.3-0.4-9.3-1.4-9.7-7.1l0,0c-0.2-1.8,0.3-3.7,1.5-5.2c1.8-2.4,5.1-3.6,8.3-3.6c4.2,0,8.6,2.2,9.3,7.2L813.3,45.3z"/>
	<path fill="#838588" d="M826.9,65.8V41.9h-8.3v-3.7h20.5v3.7h-8.3v23.9H826.9z"/>
	<path fill="#838588" d="M855.9,45.3c-0.5-2.5-3.2-3.5-5.6-3.5c-1.8,0-3.9,0.7-5,2.1c-0.5,0.7-0.7,1.6-0.7,2.5
		c0.2,2.8,3.3,3.2,6.2,3.4c3.8,0.5,8.4,1.5,9.5,5.8c0.1,0.6,0.2,1.3,0.2,1.8c0,5.3-5.3,8.3-10.2,8.3c-4.2,0-9.4-2.5-9.9-7.4v-0.7
		l4-0.1v0.6v-0.2c0.3,2.5,3.4,3.9,5.9,3.9c2.9,0,6.2-1.6,6.2-4.5c0-0.3,0-0.6-0.1-0.9c-0.5-2.1-3.3-2.4-6-2.7
		c-4.3-0.4-9.3-1.4-9.7-7.1l0,0c-0.2-1.8,0.3-3.7,1.5-5.2c1.8-2.4,5.1-3.6,8.3-3.6c4.2,0,8.6,2.2,9.3,7.2L855.9,45.3z"/>
</g>
<g>
	<path fill="#838588" d="M224.6,80.3V22.7h13.2v4h-8.2v49.7h8.2v4L224.6,80.3L224.6,80.3z"/>
</g>
<g>
	<path fill="#838588" d="M857.8,80.3v-4h8.2V26.6h-8.2v-4H871v57.6h-13.2V80.3z"/>
</g>
</svg>
