<?xml version="1.0" encoding="utf-8"?>
<!-- Generator: Adobe Illustrator 18.1.1, SVG Export Plug-In . SVG Version: 6.00 Build 0)  -->
<!DOCTYPE svg PUBLIC "-//W3C//DTD SVG 1.1//EN" "http://www.w3.org/Graphics/SVG/1.1/DTD/svg11.dtd">
<svg version="1.1" id="Layer_1" xmlns="http://www.w3.org/2000/svg" xmlns:xlink="http://www.w3.org/1999/xlink" x="0px" y="0px"
	 width="647px" height="59.1px" viewBox="0 0 647 59.1" enable-background="new 0 0 647 59.1" xml:space="preserve">
<g>
	<path fill="#FFFFFF" d="M14.8,35.5V16.4h4v19.2c0,3,3.3,4.5,6.2,4.5c2.9,0,6.1-1.5,6.1-4.5V16.4h4v19.2c0,5.6-5.4,8.5-10.1,8.5
		C20.1,44,14.8,41.1,14.8,35.5z"/>
	<path fill="#FFFFFF" d="M37.8,43.8V16.3l3.1,0l13.4,19.3V16.3h3.9v27.4H55L41.7,24.6v19.2H37.8z"/>
	<path fill="#FFFFFF" d="M73.7,20.3h-5.1v19.5h5.1v4H59.6v-4h5.1V20.3h-5.1v-3.9h14.2V20.3z"/>
	<path fill="#FFFFFF" d="M78.9,20.1c2.5-2.5,6-4.2,9.9-4.2c3.9,0,7.4,1.6,9.9,4.2c2.5,2.5,4.1,6,4.1,9.9s-1.6,7.4-4.1,9.9
		c-2.5,2.6-6,4.2-9.9,4.2c-3.8,0-7.4-1.6-9.9-4.2c-2.5-2.5-4.1-6-4.1-9.9S76.4,22.7,78.9,20.1z M95.8,22.9c-1.8-1.8-4.4-3-7.1-3
		c-2.7,0-5.2,1.1-7,3c-1.8,1.8-2.9,4.3-2.9,7.1s1.1,5.3,2.9,7.1c1.8,1.8,4.3,3,7,3c2.7,0,5.3-1.1,7.1-3c1.8-1.8,2.9-4.3,2.9-7.1
		C98.7,27.2,97.6,24.7,95.8,22.9z"/>
	<path fill="#FFFFFF" d="M105.2,43.8V16.3l3.1,0l13.4,19.3V16.3h3.9v27.4h-3.1l-13.2-19.2v19.2H105.2z"/>
	<path fill="#FFFFFF" d="M145.4,20.1c2.5-2.5,6-4.2,9.9-4.2c3.9,0,7.4,1.6,9.9,4.2c2.5,2.5,4.1,6,4.1,9.9s-1.6,7.4-4.1,9.9
		c-2.5,2.6-6,4.2-9.9,4.2c-3.8,0-7.4-1.6-9.9-4.2c-2.5-2.5-4.1-6-4.1-9.9S143,22.7,145.4,20.1z M162.4,22.9c-1.8-1.8-4.4-3-7.1-3
		c-2.7,0-5.2,1.1-7,3c-1.8,1.8-2.9,4.3-2.9,7.1s1.1,5.3,2.9,7.1c1.8,1.8,4.3,3,7,3c2.7,0,5.3-1.1,7.1-3c1.8-1.8,2.9-4.3,2.9-7.1
		C165.3,27.2,164.2,24.7,162.4,22.9z"/>
	<path fill="#FFFFFF" d="M175.6,43.8h-4V16.4H188v4h-12.4V28h11v4h-11V43.8z"/>
	<path fill="#FFFFFF" d="M206.6,20.3c2.4-2.5,5.8-4.1,9.5-4.1c6.3,0,11.2,3.9,12.8,10.1H225c-1.5-4.1-4.8-6.2-8.9-6.2
		c-2.6,0-5,1.1-6.7,2.9c-1.7,1.8-2.8,4.2-2.8,7.1c0,2.7,1.1,5.2,2.8,7c1.7,1.8,4.1,2.9,6.7,2.9c4.2,0,7.7-2.4,9.1-6.5h3.9
		c-1.6,6.2-6.6,10.5-13,10.5c-3.7,0-7.1-1.6-9.5-4.1c-2.4-2.5-3.9-6-3.9-9.8C202.7,26.2,204.3,22.8,206.6,20.3z"/>
	<path fill="#FFFFFF" d="M234.4,20.1c2.5-2.5,6-4.2,9.9-4.2c3.9,0,7.4,1.6,9.9,4.2c2.5,2.5,4.1,6,4.1,9.9s-1.6,7.4-4.1,9.9
		c-2.5,2.6-6,4.2-9.9,4.2c-3.8,0-7.4-1.6-9.9-4.2c-2.5-2.5-4.1-6-4.1-9.9S231.9,22.7,234.4,20.1z M251.4,22.9c-1.8-1.8-4.4-3-7.1-3
		c-2.7,0-5.2,1.1-7,3c-1.8,1.8-2.9,4.3-2.9,7.1s1.1,5.3,2.9,7.1c1.8,1.8,4.3,3,7,3c2.7,0,5.3-1.1,7.1-3c1.8-1.8,2.9-4.3,2.9-7.1
		C254.3,27.2,253.1,24.7,251.4,22.9z"/>
	<path fill="#FFFFFF" d="M260.7,43.8V16.3l3.1,0l13.4,19.3V16.3h3.9v27.4H278l-13.2-19.2v19.2H260.7z"/>
	<path fill="#FFFFFF" d="M287.2,20.3c2.4-2.5,5.8-4.1,9.5-4.1c6.3,0,11.2,3.9,12.8,10.1h-3.9c-1.5-4.1-4.8-6.2-8.9-6.2
		c-2.6,0-5,1.1-6.7,2.9c-1.7,1.8-2.8,4.2-2.8,7.1c0,2.7,1.1,5.2,2.8,7c1.7,1.8,4.1,2.9,6.7,2.9c4.2,0,7.7-2.4,9.1-6.5h3.9
		c-1.6,6.2-6.6,10.5-13,10.5c-3.7,0-7.1-1.6-9.5-4.1c-2.4-2.5-3.9-6-3.9-9.8C283.3,26.2,284.9,22.8,287.2,20.3z"/>
	<path fill="#FFFFFF" d="M315.5,39.8h12.7v4h-16.7V16.4h16.7v4h-12.7V28h12.4v4h-12.4V39.8z"/>
	<path fill="#FFFFFF" d="M335.4,29.8h4.6c3.3,0,5-2.4,5-4.8c0-2.4-1.6-4.7-5-4.7h-6.1v23.4H330V16.3h10c6,0,8.9,4.4,8.9,8.7
		c0,3.9-2.4,7.6-7.1,8.4l8.7,10.3h-5.1l-10-12V29.8z"/>
	<path fill="#FFFFFF" d="M350.8,43.8V16.3l3.1,0l13.4,19.3V16.3h3.9v27.4H368l-13.2-19.2v19.2H350.8z"/>
	<path fill="#FFFFFF" d="M377.7,39.8h12.7v4h-16.7V16.4h16.7v4h-12.7V28h12.4v4h-12.4V39.8z"/>
	<path fill="#FFFFFF" d="M402.1,16.4c9,0,13.5,6.9,13.5,13.7c0,6.9-4.5,13.7-13.5,13.7h-9.8V16.4H402.1z M402.1,39.8
		c6.3,0,9.6-4.9,9.6-9.7c0-4.9-3.2-9.8-9.6-9.8h-5.9v19.5H402.1z"/>
	<path fill="#FFFFFF" d="M446.5,23.4c-0.5-2.5-3.2-3.5-5.6-3.5c-1.8,0-3.9,0.7-5,2.1c-0.5,0.7-0.7,1.6-0.7,2.5
		c0.2,2.8,3.3,3.2,6.2,3.4c3.8,0.5,8.4,1.5,9.5,5.8c0.1,0.6,0.2,1.3,0.2,1.8c0,5.3-5.3,8.3-10.2,8.3c-4.2,0-9.4-2.5-9.9-7.4l0-0.7
		l4-0.1l0,0.6v-0.2c0.3,2.5,3.4,3.9,5.9,3.9c2.9,0,6.2-1.6,6.2-4.5c0-0.3,0-0.6-0.1-0.9c-0.5-2.1-3.3-2.4-6-2.7
		c-4.3-0.4-9.3-1.4-9.7-7.1v0c-0.2-1.8,0.3-3.7,1.5-5.2c1.8-2.4,5.1-3.6,8.3-3.6c4.2,0,8.6,2.2,9.3,7.2L446.5,23.4z"/>
	<path fill="#FFFFFF" d="M456.7,20.3c2.4-2.5,5.8-4.1,9.5-4.1c6.3,0,11.2,3.9,12.8,10.1H475c-1.5-4.1-4.8-6.2-8.9-6.2
		c-2.6,0-5,1.1-6.7,2.9c-1.7,1.8-2.8,4.2-2.8,7.1c0,2.7,1.1,5.2,2.8,7c1.7,1.8,4.1,2.9,6.7,2.9c4.2,0,7.7-2.4,9.1-6.5h3.9
		c-1.6,6.2-6.6,10.5-13,10.5c-3.7,0-7.1-1.6-9.5-4.1c-2.4-2.5-3.9-6-3.9-9.8C452.7,26.2,454.3,22.8,456.7,20.3z"/>
	<path fill="#FFFFFF" d="M494,20.3h-5.1v19.5h5.1v4h-14.2v-4h5.1V20.3h-5.1v-3.9H494V20.3z"/>
	<path fill="#FFFFFF" d="M499.6,39.8h12.7v4h-16.7V16.4h16.7v4h-12.7V28H512v4h-12.4V39.8z"/>
	<path fill="#FFFFFF" d="M514.1,43.8V16.3l3.1,0l13.4,19.3V16.3h3.9v27.4h-3.1l-13.2-19.2v19.2H514.1z"/>
	<path fill="#FFFFFF" d="M544,43.9V20h-8.3v-3.7h20.5V20H548v23.9H544z"/>
	<path fill="#FFFFFF" d="M572.5,20.3h-5.1v19.5h5.1v4h-14.2v-4h5.1V20.3h-5.1v-3.9h14.2V20.3z"/>
	<path fill="#FFFFFF" d="M589.3,23.4c-0.5-2.5-3.2-3.5-5.6-3.5c-1.8,0-3.9,0.7-5,2.1c-0.5,0.7-0.7,1.6-0.7,2.5
		c0.2,2.8,3.3,3.2,6.2,3.4c3.8,0.5,8.4,1.5,9.5,5.8c0.1,0.6,0.2,1.3,0.2,1.8c0,5.3-5.3,8.3-10.2,8.3c-4.2,0-9.4-2.5-9.9-7.4l0-0.7
		l4-0.1l0,0.6v-0.2c0.3,2.5,3.4,3.9,5.9,3.9c2.9,0,6.2-1.6,6.2-4.5c0-0.3,0-0.6-0.1-0.9c-0.5-2.1-3.3-2.4-6-2.7
		c-4.3-0.4-9.3-1.4-9.7-7.1v0c-0.2-1.8,0.3-3.7,1.5-5.2c1.8-2.4,5.1-3.6,8.3-3.6c4.2,0,8.6,2.2,9.3,7.2L589.3,23.4z"/>
	<path fill="#FFFFFF" d="M602.9,43.9V20h-8.3v-3.7h20.5V20h-8.3v23.9H602.9z"/>
	<path fill="#FFFFFF" d="M631.9,23.4c-0.5-2.5-3.2-3.5-5.6-3.5c-1.8,0-3.9,0.7-5,2.1c-0.5,0.7-0.7,1.6-0.7,2.5
		c0.2,2.8,3.3,3.2,6.2,3.4c3.8,0.5,8.4,1.5,9.5,5.8c0.1,0.6,0.2,1.3,0.2,1.8c0,5.3-5.3,8.3-10.2,8.3c-4.2,0-9.4-2.5-9.9-7.4l0-0.7
		l4-0.1l0,0.6v-0.2c0.3,2.5,3.4,3.9,5.9,3.9c2.9,0,6.2-1.6,6.2-4.5c0-0.3,0-0.6-0.1-0.9c-0.5-2.1-3.3-2.4-6-2.7
		c-4.3-0.4-9.3-1.4-9.7-7.1v0c-0.2-1.8,0.3-3.7,1.5-5.2c1.8-2.4,5.1-3.6,8.3-3.6c4.2,0,8.6,2.2,9.3,7.2L631.9,23.4z"/>
</g>
<g>
	<path fill="#FFFFFF" d="M0.6,58.4V0.8h13.2v4H5.6v49.7h8.2v4H0.6z"/>
</g>
<g>
	<path fill="#FFFFFF" d="M633.8,58.4v-4h8.2V4.7h-8.2v-4H647v57.6H633.8z"/>
</g>
</svg>
