<?xml version="1.0" encoding="utf-8"?>
<!-- Generator: Adobe Illustrator 18.1.1, SVG Export Plug-In . SVG Version: 6.00 Build 0)  -->
<!DOCTYPE svg PUBLIC "-//W3C//DTD SVG 1.1//EN" "http://www.w3.org/Graphics/SVG/1.1/DTD/svg11.dtd">
<svg version="1.1" id="Layer_1" xmlns="http://www.w3.org/2000/svg" xmlns:xlink="http://www.w3.org/1999/xlink" x="0px" y="0px"
	 width="100px" height="59.1px" viewBox="-49 21.9 100 59.1" enable-background="new -49 21.9 100 59.1" xml:space="preserve">
<g>
	<g enable-background="new    ">
		<path fill="#838588" d="M-34.2,57.4V38.2h4v19.2c0,3,3.3,4.5,6.2,4.5s6.1-1.5,6.1-4.5V38.2h4v19.2c0,5.6-5.4,8.5-10.1,8.5
			C-28.9,65.8-34.2,63-34.2,57.4z"/>
		<path fill="#838588" d="M-7.8,42.2c2.4-2.5,5.8-4.1,9.5-4.1c6.3,0,11.2,3.9,12.8,10.1h-3.9C9.1,44.1,5.8,42,1.7,42
			c-2.6,0-5,1.1-6.7,2.9c-1.7,1.8-2.8,4.2-2.8,7.1c0,2.7,1.1,5.2,2.8,7s4.1,2.9,6.7,2.9c4.2,0,7.7-2.4,9.1-6.5h3.9
			c-1.6,6.2-6.6,10.5-13,10.5c-3.7,0-7.1-1.6-9.5-4.1c-2.4-2.5-3.9-6-3.9-9.8C-11.7,48-10.2,44.7-7.8,42.2z"/>
		<path fill="#838588" d="M31.6,45.2c-0.5-2.5-3.2-3.5-5.6-3.5c-1.8,0-3.9,0.7-5,2.1c-0.5,0.7-0.7,1.6-0.7,2.5
			c0.2,2.8,3.3,3.2,6.2,3.4c3.8,0.5,8.4,1.5,9.5,5.8c0.1,0.6,0.2,1.3,0.2,1.8c0,5.3-5.3,8.3-10.2,8.3c-4.2,0-9.4-2.5-9.9-7.4v-0.7
			l4-0.1V58v-0.2c0.3,2.5,3.4,3.9,5.9,3.9c2.9,0,6.2-1.6,6.2-4.5c0-0.3,0-0.6-0.1-0.9c-0.5-2.1-3.3-2.4-6-2.7
			c-4.3-0.4-9.3-1.4-9.7-7.1l0,0c-0.2-1.8,0.3-3.7,1.5-5.2c1.8-2.4,5.1-3.6,8.3-3.6c4.2,0,8.6,2.2,9.3,7.2L31.6,45.2z"/>
	</g>
	<g>
		<path fill="#838588" d="M-48.4,80.2V22.7h13.2v4h-8.2v49.7h8.2v4L-48.4,80.2L-48.4,80.2z"/>
	</g>
	<g>
		<path fill="#838588" d="M37.2,80.2v-4h8.2V26.5h-8.2v-4h13.2v57.6H37.2V80.2z"/>
	</g>
</g>
</svg>
