<?xml version="1.0" encoding="utf-8"?>
<!-- Generator: Adobe Illustrator 18.0.0, SVG Export Plug-In . SVG Version: 6.00 Build 0)  -->
<!DOCTYPE svg PUBLIC "-//W3C//DTD SVG 1.1//EN" "http://www.w3.org/Graphics/SVG/1.1/DTD/svg11.dtd">
<svg version="1.1" id="Layer_1" xmlns="http://www.w3.org/2000/svg" xmlns:xlink="http://www.w3.org/1999/xlink" x="0px" y="0px"
	 viewBox="818 500 349 85" enable-background="new 818 500 349 85" xml:space="preserve">
<g>
	<path fill="#2C3E50" d="M826.5,572.9V564c0-0.1,0.1-0.3,0.2-0.4c0.1-0.1,0.2-0.2,0.4-0.2c0.1,0,0.3,0.1,0.4,0.2
		c0.1,0.1,0.2,0.2,0.2,0.4v8.9c0,1.4,0.5,2.7,1.5,3.7c1,1,2.2,1.5,3.7,1.5s2.7-0.5,3.7-1.5c1-1,1.5-2.2,1.5-3.7V564
		c0-0.1,0.1-0.3,0.2-0.4c0.1-0.1,0.2-0.2,0.4-0.2c0.1,0,0.3,0.1,0.4,0.2c0.1,0.1,0.2,0.2,0.2,0.4v8.9c0,1.7-0.6,3.2-1.8,4.5
		c-1.2,1.2-2.7,1.8-4.5,1.8c-1.7,0-3.2-0.6-4.5-1.8C827.1,576.1,826.5,574.7,826.5,572.9z"/>
	<path fill="#2C3E50" d="M845.5,578.8c-0.1,0.3-0.2,0.4-0.5,0.4h-0.1c-0.2,0-0.3-0.1-0.4-0.3c0,0,0,0,0-0.1l0,0v-10.1
		c0-0.1,0-0.3,0.2-0.4c0.1-0.1,0.2-0.2,0.4-0.2c0.1,0,0.3,0.1,0.4,0.2c0.1,0.1,0.1,0.2,0.1,0.4v1c0.9-1.1,2-1.6,3.3-1.6
		s2.4,0.4,3.3,1.3c0.9,0.9,1.3,1.9,1.3,3.1v5.9c0,0.1-0.1,0.3-0.2,0.4c-0.1,0.1-0.2,0.2-0.4,0.2c-0.1,0-0.3-0.1-0.4-0.2
		c-0.1-0.1-0.2-0.2-0.2-0.4v-5.9c0-0.9-0.3-1.7-1-2.4c-0.7-0.7-1.4-1-2.4-1c-1,0-1.7,0.3-2.4,1c-0.7,0.7-1,1.4-1,2.4V578.8
		L845.5,578.8z"/>
	<path fill="#2C3E50" d="M858.2,565.7v-0.5c0-0.1,0-0.3,0.2-0.4c0.2-0.1,0.2-0.2,0.4-0.2c0.1,0,0.3,0.1,0.4,0.2
		c0.1,0.1,0.2,0.2,0.2,0.4v0.5c0,0.2-0.1,0.3-0.2,0.4c-0.1,0.1-0.2,0.2-0.4,0.2c-0.1,0-0.3-0.1-0.4-0.2
		C858.3,566,858.2,565.9,858.2,565.7z M858.2,578.7v-9.9c0-0.1,0-0.3,0.2-0.4c0.2-0.1,0.2-0.2,0.4-0.2s0.3,0.1,0.4,0.2
		c0.1,0.1,0.2,0.2,0.2,0.4v9.9c0,0.1-0.1,0.3-0.2,0.4c-0.1,0.1-0.2,0.2-0.4,0.2c-0.1,0-0.3-0.1-0.4-0.2
		C858.3,579,858.2,578.8,858.2,578.7z"/>
	<path fill="#2C3E50" d="M865.6,577.6c-1-1.1-1.5-2.4-1.5-3.8c0-1.5,0.5-2.8,1.5-3.8c1-1.1,2.2-1.6,3.7-1.6c1.4,0,2.6,0.5,3.7,1.6
		c1,1.1,1.5,2.4,1.5,3.8c0,1.5-0.5,2.8-1.5,3.8c-1,1.1-2.2,1.6-3.7,1.6S866.6,578.7,865.6,577.6z M869.2,569.3
		c-1.1,0-2.1,0.4-2.9,1.3s-1.2,1.9-1.2,3.1c0,1.2,0.4,2.2,1.2,3.1s1.8,1.3,2.9,1.3c1.1,0,2.1-0.4,2.9-1.3c0.8-0.9,1.2-1.9,1.2-3.1
		c0-1.2-0.4-2.2-1.2-3.1C871.3,569.7,870.3,569.3,869.2,569.3z"/>
	<path fill="#2C3E50" d="M879.6,578.8c-0.1,0.3-0.2,0.4-0.5,0.4h-0.1c-0.2,0-0.3-0.1-0.4-0.3c0,0,0,0,0-0.1l0,0v-10.1
		c0-0.1,0-0.3,0.2-0.4c0.1-0.1,0.2-0.2,0.4-0.2c0.1,0,0.3,0.1,0.4,0.2c0.1,0.1,0.1,0.2,0.1,0.4v1c0.9-1.1,2-1.6,3.3-1.6
		c1.3,0,2.4,0.4,3.3,1.3c0.9,0.9,1.3,1.9,1.3,3.1v5.9c0,0.1-0.1,0.3-0.2,0.4c-0.1,0.1-0.2,0.2-0.4,0.2c-0.1,0-0.3-0.1-0.4-0.2
		c-0.1-0.1-0.2-0.2-0.2-0.4v-5.9c0-0.9-0.3-1.7-1-2.4c-0.7-0.7-1.4-1-2.4-1s-1.7,0.3-2.4,1c-0.7,0.7-1,1.4-1,2.4L879.6,578.8
		L879.6,578.8z"/>
	<path fill="#2C3E50" d="M900,577.6c-1-1.1-1.5-2.4-1.5-3.8c0-1.5,0.5-2.8,1.5-3.8c1-1.1,2.2-1.6,3.7-1.6c1.4,0,2.6,0.5,3.7,1.6
		c1,1.1,1.5,2.4,1.5,3.8c0,1.5-0.5,2.8-1.5,3.8c-1,1.1-2.2,1.6-3.7,1.6S901,578.7,900,577.6z M903.7,569.3c-1.1,0-2.1,0.4-2.9,1.3
		c-0.8,0.9-1.2,1.9-1.2,3.1c0,1.2,0.4,2.2,1.2,3.1s1.8,1.3,2.9,1.3s2.1-0.4,2.9-1.3c0.8-0.9,1.2-1.9,1.2-3.1c0-1.2-0.4-2.2-1.2-3.1
		C905.7,569.7,904.8,569.3,903.7,569.3z"/>
	<path fill="#2C3E50" d="M917.3,563.6c0.1,0,0.3,0.1,0.4,0.2c0.1,0.1,0.2,0.2,0.2,0.4s-0.1,0.3-0.2,0.4c-0.1,0.1-0.2,0.2-0.4,0.2
		c-0.7,0-1.2,0.2-1.4,0.5c-0.3,0.3-0.4,0.9-0.4,1.8v1.2h1.5c0.1,0,0.3,0.1,0.4,0.2c0.1,0.1,0.2,0.2,0.2,0.4c0,0.1-0.1,0.3-0.2,0.4
		c-0.1,0.1-0.2,0.2-0.4,0.2h-1.5v9.6c0,0.1-0.1,0.3-0.2,0.4s-0.2,0.2-0.4,0.2c-0.1,0-0.3-0.1-0.4-0.2c-0.1-0.1-0.2-0.2-0.2-0.4v-9.6
		h-1.4c-0.1,0-0.3-0.1-0.4-0.2c-0.1-0.1-0.2-0.2-0.2-0.4c0-0.1,0-0.3,0.2-0.4c0.2-0.1,0.2-0.2,0.4-0.2h1.4v-1.2c0-1.2,0.3-2,0.7-2.5
		C915.6,563.8,916.3,563.6,917.3,563.6z"/>
	<path fill="#2C3E50" d="M929.8,576.9c-1.6-1.5-2.4-3.4-2.4-5.6c0-2.2,0.8-4.1,2.4-5.6c1.6-1.5,3.5-2.3,5.7-2.3c1.9,0,3.5,0.6,5,1.7
		c0.1,0.1,0.2,0.2,0.2,0.4s0,0.3-0.1,0.4s-0.2,0.2-0.4,0.2c-0.2,0-0.3,0-0.4-0.1c-1.3-1-2.7-1.5-4.4-1.5c-1.9,0-3.6,0.7-5,2
		s-2,2.9-2,4.8c0,1.9,0.7,3.5,2,4.8c1.4,1.3,3,2,4.8,2s3.3-0.5,4.5-1.5c0.1-0.1,0.3-0.1,0.4-0.1c0.2,0,0.3,0.1,0.3,0.2
		c0.1,0.1,0.1,0.2,0.1,0.4s-0.1,0.3-0.2,0.4c-1.5,1.1-3.1,1.7-5,1.7C933.3,579.2,931.4,578.5,929.8,576.9z"/>
	<path fill="#2C3E50" d="M946.1,577.6c-1-1.1-1.5-2.4-1.5-3.8c0-1.5,0.5-2.8,1.5-3.8c1-1.1,2.2-1.6,3.7-1.6c1.4,0,2.6,0.5,3.7,1.6
		c1,1.1,1.5,2.4,1.5,3.8c0,1.5-0.5,2.8-1.5,3.8c-1,1.1-2.2,1.6-3.7,1.6C948.4,579.2,947.1,578.7,946.1,577.6z M949.8,569.3
		c-1.1,0-2.1,0.4-2.9,1.3c-0.8,0.9-1.2,1.9-1.2,3.1c0,1.2,0.4,2.2,1.2,3.1s1.8,1.3,2.9,1.3s2.1-0.4,2.9-1.3c0.8-0.9,1.2-1.9,1.2-3.1
		c0-1.2-0.4-2.2-1.2-3.1S950.9,569.3,949.8,569.3z"/>
	<path fill="#2C3E50" d="M960.2,578.8c-0.1,0.3-0.2,0.4-0.5,0.4h-0.1c-0.2,0-0.3-0.1-0.4-0.3c0,0,0,0,0-0.1l0,0v-10.1
		c0-0.1,0-0.3,0.2-0.4c0.1-0.1,0.2-0.2,0.4-0.2c0.1,0,0.3,0.1,0.4,0.2c0.1,0.1,0.1,0.2,0.1,0.4v1c0.9-1.1,2-1.6,3.3-1.6
		s2.4,0.4,3.3,1.3c0.9,0.9,1.3,1.9,1.3,3.1v5.9c0,0.1-0.1,0.3-0.2,0.4c-0.1,0.1-0.2,0.2-0.4,0.2c-0.1,0-0.3-0.1-0.4-0.2
		c-0.1-0.1-0.2-0.2-0.2-0.4v-5.9c0-0.9-0.3-1.7-1-2.4c-0.7-0.7-1.4-1-2.4-1s-1.7,0.3-2.4,1c-0.7,0.7-1,1.4-1,2.4L960.2,578.8
		L960.2,578.8z"/>
	<path fill="#2C3E50" d="M973.7,577.6c-1.1-1.1-1.6-2.4-1.6-3.9c0-1.5,0.5-2.8,1.6-3.9c1.1-1.1,2.4-1.6,3.8-1.6
		c1.4,0,2.7,0.4,3.7,1.2c0.1,0.1,0.2,0.2,0.2,0.3c0,0.1,0,0.3-0.1,0.4c-0.2,0.3-0.5,0.3-0.7,0.1c-0.8-0.7-1.8-1-3-1
		c-1.2,0-2.2,0.4-3.1,1.3c-0.9,0.9-1.3,1.9-1.3,3.1c0,1.2,0.4,2.3,1.3,3.1c0.9,0.9,1.9,1.3,3.1,1.3c1.1,0,2.1-0.3,3-1
		c0.3-0.2,0.5-0.2,0.7,0.1s0.2,0.5-0.1,0.8c-1,0.8-2.1,1.2-3.4,1.2C976.2,579.2,974.8,578.7,973.7,577.6z"/>
	<path fill="#2C3E50" d="M995.5,573.4L995.5,573.4c0,0.2-0.1,0.4-0.2,0.4c-0.1,0.1-0.2,0.1-0.4,0.1h-9c0.1,1.2,0.5,2.2,1.3,3
		c0.8,0.8,1.8,1.2,2.9,1.2c0.7,0,1.4-0.2,2-0.5c0.6-0.4,1.1-0.8,1.5-1.4c0.2-0.3,0.4-0.4,0.7-0.2c0.3,0.2,0.4,0.5,0.2,0.8
		c-0.5,0.8-1.1,1.4-1.9,1.8c-0.8,0.4-1.6,0.7-2.5,0.7c-1.5,0-2.7-0.5-3.8-1.6c-1-1.1-1.5-2.3-1.5-3.9s0.5-2.8,1.5-3.9
		c1-1.1,2.3-1.6,3.7-1.6s2.6,0.5,3.6,1.5C994.8,570.6,995.4,571.9,995.5,573.4z M992.9,570.3c-0.8-0.7-1.7-1-2.7-1s-1.9,0.3-2.7,1
		c-0.8,0.7-1.3,1.5-1.5,2.5h8.4C994.1,571.8,993.7,571,992.9,570.3z"/>
	<path fill="#2C3E50" d="M999.4,578.7v-9.9c0-0.1,0-0.3,0.2-0.4c0.1-0.1,0.2-0.2,0.4-0.2c0.1,0,0.3,0.1,0.4,0.2s0.2,0.2,0.2,0.4v2.4
		c0.1-0.1,0.1-0.2,0.2-0.3c1.1-1.8,2.6-2.7,4.4-2.7c0.1,0,0.3,0.1,0.4,0.2s0.2,0.2,0.2,0.4c0,0.1-0.1,0.3-0.2,0.4
		c-0.1,0.1-0.2,0.2-0.4,0.2c-1.2,0-2.2,0.6-3.2,1.8c-0.5,0.7-1,1.6-1.3,2.5c0,0.1,0,0.1,0,0.2v4.8c0,0.1-0.1,0.3-0.2,0.4
		s-0.2,0.2-0.4,0.2c-0.1,0-0.3-0.1-0.4-0.2S999.4,578.8,999.4,578.7z"/>
	<path fill="#2C3E50" d="M1010.2,578.8c-0.1,0.3-0.2,0.4-0.5,0.4h-0.1c-0.2,0-0.3-0.1-0.4-0.3c0,0,0,0,0-0.1l0,0v-10.1
		c0-0.1,0-0.3,0.2-0.4c0.1-0.1,0.2-0.2,0.4-0.2c0.1,0,0.3,0.1,0.4,0.2c0.1,0.1,0.1,0.2,0.1,0.4v1c0.9-1.1,2-1.6,3.3-1.6
		c1.3,0,2.4,0.4,3.3,1.3c0.9,0.9,1.3,1.9,1.3,3.1v5.9c0,0.1-0.1,0.3-0.2,0.4c-0.1,0.1-0.2,0.2-0.4,0.2c-0.1,0-0.3-0.1-0.4-0.2
		c-0.1-0.1-0.2-0.2-0.2-0.4v-5.9c0-0.9-0.3-1.7-1-2.4c-0.7-0.7-1.4-1-2.4-1c-0.9,0-1.7,0.3-2.4,1c-0.7,0.7-1,1.4-1,2.4L1010.2,578.8
		L1010.2,578.8z"/>
	<path fill="#2C3E50" d="M1032.8,573.4L1032.8,573.4c0,0.2-0.1,0.4-0.2,0.4c-0.1,0.1-0.2,0.1-0.4,0.1h-9c0.1,1.2,0.5,2.2,1.3,3
		c0.8,0.8,1.8,1.2,2.9,1.2c0.7,0,1.4-0.2,2-0.5c0.6-0.4,1.1-0.8,1.5-1.4c0.2-0.3,0.4-0.4,0.7-0.2c0.3,0.2,0.4,0.5,0.2,0.8
		c-0.5,0.8-1.1,1.4-1.9,1.8s-1.6,0.7-2.5,0.7c-1.5,0-2.7-0.5-3.8-1.6c-1-1.1-1.5-2.3-1.5-3.9s0.5-2.8,1.5-3.9c1-1.1,2.3-1.6,3.7-1.6
		c1.4,0,2.6,0.5,3.6,1.5C1032.1,570.6,1032.6,571.9,1032.8,573.4z M1030.2,570.3c-0.8-0.7-1.7-1-2.7-1s-1.9,0.3-2.7,1
		c-0.8,0.7-1.3,1.5-1.5,2.5h8.4C1031.4,571.8,1030.9,571,1030.2,570.3z"/>
	<path fill="#2C3E50" d="M1045.4,578.7v-1.6c-0.5,0.7-1.1,1.2-1.8,1.5c-0.7,0.4-1.5,0.6-2.4,0.6c-1.5,0-2.7-0.5-3.7-1.6
		s-1.5-2.3-1.5-3.9c0-1.6,0.5-2.8,1.5-3.9s2.3-1.6,3.7-1.6c0.8,0,1.6,0.2,2.4,0.6c0.7,0.4,1.3,0.9,1.8,1.6V564
		c0-0.1,0.1-0.3,0.2-0.4s0.2-0.2,0.4-0.2c0.1,0,0.3,0.1,0.4,0.2s0.2,0.2,0.2,0.4v14.6c0,0.1-0.1,0.3-0.2,0.4s-0.2,0.2-0.4,0.2
		c-0.1,0-0.3-0.1-0.4-0.2C1045.4,579,1045.4,578.8,1045.4,578.7z M1036.9,573.8c0,1.2,0.4,2.2,1.2,3.1c0.8,0.8,1.8,1.3,2.9,1.3
		s2.1-0.4,2.9-1.2c0.8-0.8,1.2-1.8,1.3-2.9v-0.4c0-1.2-0.5-2.2-1.3-3s-1.8-1.2-2.9-1.2s-2.1,0.4-2.9,1.3
		C1037.3,571.4,1036.9,572.6,1036.9,573.8z"/>
	<path fill="#2C3E50" d="M1059,567.4c0,1.5,1.5,2.5,4.5,3.1l0,0c1.7,0.3,3,0.8,4,1.4c1.1,0.7,1.7,1.7,1.7,3c0,1.2-0.6,2.3-1.7,3.1
		c-1.2,0.8-2.5,1.2-4,1.2c-2,0-3.9-0.8-5.7-2.2c-0.2-0.2-0.3-0.4-0.1-0.7c0.1-0.1,0.2-0.2,0.3-0.2c0.1,0,0.3,0,0.4,0.1
		c1.7,1.3,3.4,2,5.1,2c1.4,0,2.5-0.3,3.4-1c0.9-0.6,1.3-1.4,1.3-2.3c0-1.7-1.6-2.8-4.9-3.4l0,0c-3.5-0.7-5.3-2-5.3-4
		c0-1.2,0.5-2.1,1.6-2.9s2.3-1.2,3.8-1.2c0.6,0,1.3,0.1,1.9,0.3c0.6,0.2,1.1,0.4,1.5,0.6c0.4,0.2,0.8,0.5,1.4,0.9
		c0.3,0.2,0.3,0.4,0.1,0.7c-0.2,0.3-0.4,0.3-0.7,0.1c-0.5-0.3-1-0.6-1.3-0.8s-0.8-0.4-1.3-0.6c-0.6-0.2-1.1-0.3-1.6-0.3
		c-1.2,0-2.3,0.3-3.2,0.9C1059.4,565.8,1059,566.6,1059,567.4z"/>
	<path fill="#2C3E50" d="M1073.9,577.6c-1.1-1.1-1.6-2.4-1.6-3.9c0-1.5,0.5-2.8,1.6-3.9s2.4-1.6,3.8-1.6c1.4,0,2.7,0.4,3.7,1.2
		c0.1,0.1,0.2,0.2,0.2,0.3s0,0.3-0.1,0.4c-0.2,0.3-0.5,0.3-0.7,0.1c-0.8-0.7-1.8-1-3-1c-1.2,0-2.2,0.4-3.1,1.3
		c-0.9,0.9-1.3,1.9-1.3,3.1c0,1.2,0.4,2.3,1.3,3.1c0.9,0.9,1.9,1.3,3.1,1.3c1.1,0,2.1-0.3,3-1c0.3-0.2,0.5-0.2,0.7,0.1
		c0.2,0.3,0.2,0.5-0.1,0.8c-1,0.8-2.1,1.2-3.4,1.2C1076.3,579.2,1075,578.7,1073.9,577.6z"/>
	<path fill="#2C3E50" d="M1085.9,565.7v-0.5c0-0.1,0-0.3,0.2-0.4c0.2-0.1,0.2-0.2,0.4-0.2c0.1,0,0.3,0.1,0.4,0.2s0.2,0.2,0.2,0.4
		v0.5c0,0.2-0.1,0.3-0.2,0.4c-0.1,0.1-0.2,0.2-0.4,0.2c-0.1,0-0.3-0.1-0.4-0.2C1086,566,1085.9,565.9,1085.9,565.7z M1085.9,578.7
		v-9.9c0-0.1,0-0.3,0.2-0.4c0.2-0.1,0.2-0.2,0.4-0.2c0.2,0,0.3,0.1,0.4,0.2s0.2,0.2,0.2,0.4v9.9c0,0.1-0.1,0.3-0.2,0.4
		s-0.2,0.2-0.4,0.2c-0.1,0-0.3-0.1-0.4-0.2C1086,579,1085.9,578.8,1085.9,578.7z"/>
	<path fill="#2C3E50" d="M1102,573.4L1102,573.4c0,0.2-0.1,0.4-0.2,0.4c-0.1,0.1-0.2,0.1-0.4,0.1h-9c0.1,1.2,0.5,2.2,1.3,3
		s1.8,1.2,2.9,1.2c0.7,0,1.4-0.2,2-0.5c0.6-0.4,1.1-0.8,1.5-1.4c0.2-0.3,0.4-0.4,0.7-0.2s0.4,0.5,0.2,0.8c-0.5,0.8-1.1,1.4-1.9,1.8
		c-0.8,0.4-1.6,0.7-2.5,0.7c-1.5,0-2.7-0.5-3.8-1.6c-1-1.1-1.5-2.3-1.5-3.9s0.5-2.8,1.5-3.9c1-1.1,2.3-1.6,3.7-1.6
		c1.4,0,2.6,0.5,3.6,1.5C1101.3,570.6,1101.9,571.9,1102,573.4z M1099.3,570.3c-0.8-0.7-1.7-1-2.7-1s-1.9,0.3-2.7,1
		c-0.8,0.7-1.3,1.5-1.5,2.5h8.4C1100.7,571.8,1100.1,571,1099.3,570.3z"/>
	<path fill="#2C3E50" d="M1106.8,578.8c-0.1,0.3-0.2,0.4-0.5,0.4h-0.1c-0.2,0-0.3-0.1-0.4-0.3c0,0,0,0,0-0.1l0,0v-10.1
		c0-0.1,0-0.3,0.2-0.4c0.1-0.1,0.2-0.2,0.4-0.2c0.1,0,0.3,0.1,0.4,0.2c0.1,0.1,0.1,0.2,0.1,0.4v1c0.9-1.1,2-1.6,3.3-1.6
		c1.3,0,2.4,0.4,3.3,1.3c0.9,0.9,1.3,1.9,1.3,3.1v5.9c0,0.1-0.1,0.3-0.2,0.4c-0.1,0.1-0.2,0.2-0.4,0.2c-0.1,0-0.3-0.1-0.4-0.2
		c-0.1-0.1-0.2-0.2-0.2-0.4v-5.9c0-0.9-0.3-1.7-1-2.4c-0.7-0.7-1.4-1-2.4-1s-1.7,0.3-2.4,1c-0.7,0.7-1,1.4-1,2.4L1106.8,578.8
		L1106.8,578.8z"/>
	<path fill="#2C3E50" d="M1122.8,568.2c0.1,0,0.3,0.1,0.4,0.2s0.2,0.2,0.2,0.4c0,0.1-0.1,0.3-0.2,0.4c-0.1,0.1-0.2,0.2-0.4,0.2h-1.4
		v8c0,0.2,0.1,0.4,0.3,0.6c0.2,0.1,0.4,0.2,0.5,0.2c0.1,0,0.3,0.1,0.4,0.2c0.1,0.1,0.2,0.2,0.2,0.4c0,0.1-0.1,0.3-0.2,0.4
		c-0.1,0.1-0.2,0.2-0.4,0.2c-0.5,0-1-0.2-1.4-0.5c-0.4-0.4-0.5-0.8-0.5-1.4v-8h-1.4c-0.2,0-0.4,0-0.4-0.1c-0.1-0.1-0.1-0.2-0.1-0.4
		c0-0.1,0-0.3,0-0.3c0-0.2,0.2-0.3,0.5-0.3h1.4v-4.2c0-0.1,0.1-0.3,0.2-0.4s0.2-0.2,0.4-0.2c0.2,0,0.3,0.1,0.4,0.2
		c0.1,0.1,0.2,0.2,0.2,0.4v4.1h1.3V568.2z"/>
	<path fill="#2C3E50" d="M1128.5,565.7v-0.5c0-0.1,0-0.3,0.2-0.4c0.1-0.1,0.2-0.2,0.4-0.2c0.1,0,0.3,0.1,0.4,0.2
		c0.1,0.1,0.2,0.2,0.2,0.4v0.5c0,0.2-0.1,0.3-0.2,0.4c-0.1,0.1-0.2,0.2-0.4,0.2c-0.1,0-0.3-0.1-0.4-0.2
		C1128.5,566,1128.5,565.9,1128.5,565.7z M1128.5,578.7v-9.9c0-0.1,0-0.3,0.2-0.4c0.1-0.1,0.2-0.2,0.4-0.2s0.3,0.1,0.4,0.2
		s0.2,0.2,0.2,0.4v9.9c0,0.1-0.1,0.3-0.2,0.4c-0.1,0.1-0.2,0.2-0.4,0.2c-0.1,0-0.3-0.1-0.4-0.2
		C1128.5,579,1128.5,578.8,1128.5,578.7z"/>
	<path fill="#2C3E50" d="M1134.1,577.7c-0.3-0.2-0.3-0.5-0.1-0.7c0.1-0.1,0.2-0.2,0.4-0.2c0.1,0,0.3,0,0.4,0.1
		c1.2,0.8,2.2,1.3,3.2,1.3c0.9,0,1.7-0.2,2.2-0.7c0.5-0.4,0.8-0.8,0.8-1.3s-0.3-0.9-0.7-1.3c-0.5-0.4-1.3-0.7-2.3-0.8l0,0
		c-1.2-0.2-2-0.5-2.5-0.8c-0.8-0.5-1.2-1.1-1.2-2c0-0.9,0.4-1.6,1.2-2.1c0.7-0.5,1.6-0.7,2.7-0.7c0.4,0,0.9,0.1,1.3,0.2
		c0.4,0.1,0.8,0.3,1,0.4c0.2,0.1,0.5,0.3,0.9,0.6c0.1,0.1,0.2,0.2,0.2,0.4c0,0.1,0,0.3-0.1,0.4c-0.1,0.1-0.2,0.2-0.3,0.2
		c-0.1,0-0.3,0-0.4-0.1c-0.4-0.3-0.6-0.4-0.8-0.5c-0.2-0.1-0.5-0.2-0.8-0.4c-0.4-0.1-0.7-0.2-1-0.2c-0.9,0-1.5,0.2-2,0.6
		c-0.5,0.4-0.7,0.8-0.7,1.2c0,0.4,0.2,0.8,0.6,1.1c0.5,0.4,1.3,0.6,2.2,0.8l0,0c1,0.1,1.8,0.4,2.6,0.9c0.8,0.5,1.2,1.3,1.2,2.1
		c0,0.9-0.4,1.6-1.2,2.2c-0.8,0.6-1.7,0.9-2.7,0.9C1136.7,579.2,1135.4,578.7,1134.1,577.7z"/>
	<path fill="#2C3E50" d="M1149.1,568.2c0.1,0,0.3,0.1,0.4,0.2c0.1,0.1,0.2,0.2,0.2,0.4c0,0.1-0.1,0.3-0.2,0.4
		c-0.1,0.1-0.2,0.2-0.4,0.2h-1.4v8c0,0.2,0.1,0.4,0.3,0.6c0.2,0.1,0.4,0.2,0.5,0.2c0.1,0,0.3,0.1,0.4,0.2c0.1,0.1,0.2,0.2,0.2,0.4
		c0,0.1-0.1,0.3-0.2,0.4c-0.1,0.1-0.2,0.2-0.4,0.2c-0.5,0-1-0.2-1.4-0.5c-0.4-0.4-0.5-0.8-0.5-1.4v-8h-1.4c-0.2,0-0.4,0-0.4-0.1
		c-0.1-0.1-0.1-0.2-0.1-0.4c0-0.1,0-0.3,0-0.3c0-0.2,0.2-0.3,0.5-0.3h1.4v-4.2c0-0.1,0.1-0.3,0.2-0.4s0.2-0.2,0.4-0.2
		c0.1,0,0.3,0.1,0.4,0.2s0.2,0.2,0.2,0.4v4.1h1.3V568.2z"/>
	<path fill="#2C3E50" d="M1154.1,577.7c-0.3-0.2-0.3-0.5-0.1-0.7c0.1-0.1,0.2-0.2,0.4-0.2c0.1,0,0.3,0,0.4,0.1
		c1.2,0.8,2.2,1.3,3.2,1.3c0.9,0,1.7-0.2,2.2-0.7c0.5-0.4,0.8-0.8,0.8-1.3s-0.3-0.9-0.7-1.3c-0.5-0.4-1.3-0.7-2.3-0.8l0,0
		c-1.2-0.2-2-0.5-2.5-0.8c-0.8-0.5-1.2-1.1-1.2-2c0-0.9,0.4-1.6,1.2-2.1c0.7-0.5,1.6-0.7,2.7-0.7c0.4,0,0.9,0.1,1.3,0.2
		s0.8,0.3,1,0.4c0.2,0.1,0.5,0.3,0.9,0.6c0.1,0.1,0.2,0.2,0.2,0.4c0,0.1,0,0.3-0.1,0.4c-0.1,0.1-0.2,0.2-0.3,0.2s-0.3,0-0.4-0.1
		c-0.4-0.3-0.6-0.4-0.8-0.5c-0.2-0.1-0.5-0.2-0.8-0.4c-0.4-0.1-0.7-0.2-1-0.2c-0.9,0-1.5,0.2-2,0.6c-0.5,0.4-0.7,0.8-0.7,1.2
		c0,0.4,0.2,0.8,0.6,1.1c0.5,0.4,1.3,0.6,2.2,0.8l0,0c1,0.1,1.8,0.4,2.6,0.9s1.2,1.3,1.2,2.1c0,0.9-0.4,1.6-1.2,2.2
		s-1.7,0.9-2.7,0.9C1156.7,579.2,1155.3,578.7,1154.1,577.7z"/>
</g>
<g>
	<path fill="#2C3E50" d="M824.7,533.6v-25.2c0-0.4,0.1-0.8,0.4-1.1c0.3-0.3,0.7-0.4,1.1-0.4c0.4,0,0.8,0.1,1.1,0.4
		c0.3,0.3,0.5,0.7,0.5,1.1v25.2c0,4.1,1.5,7.7,4.4,10.6s6.4,4.3,10.6,4.4c4.2,0,7.8-1.5,10.7-4.4s4.4-6.4,4.4-10.6v-25.2
		c0-0.4,0.1-0.8,0.4-1.1c0.3-0.3,0.7-0.4,1.1-0.4c0.4,0,0.8,0.1,1.1,0.4c0.3,0.3,0.5,0.7,0.5,1.1v25.2c0,5-1.8,9.3-5.3,12.8
		c-3.5,3.5-7.9,5.3-12.8,5.3c-5,0-9.3-1.8-12.8-5.3C826.5,542.8,824.7,538.6,824.7,533.6z"/>
	<path fill="#2C3E50" d="M878.6,517.9c0.1,4.2,4.4,7.2,13,8.9h0.1c4.9,0.9,8.8,2.2,11.4,4.1c3.3,2.1,4.9,4.9,4.9,8.5
		c0,3.5-1.6,6.4-4.9,8.9c-3.3,2.4-7.1,3.6-11.6,3.6c-5.6,0-11.2-2.2-16.5-6.4c-0.7-0.6-0.7-1.3-0.2-2c0.3-0.3,0.6-0.5,1-0.5
		c0.4,0,0.7,0.1,1,0.3c4.8,3.9,9.8,5.8,14.7,5.7c3.9,0,7.2-1,9.9-2.9c2.5-1.8,3.8-4,3.8-6.6c0-4.7-4.6-8.1-14-9.8h-0.1
		c-10.2-1.9-15.2-5.7-15.2-11.6c0-3.3,1.5-6.1,4.5-8.4s6.6-3.3,10.9-3.3c1.8,0,3.7,0.3,5.5,0.9c1.8,0.6,3.3,1.2,4.3,1.8
		s2.3,1.4,3.9,2.4c0.8,0.5,0.9,1.2,0.4,2c-0.5,0.8-1.1,0.9-1.9,0.4c-1.5-1-2.8-1.7-3.7-2.3c-1-0.6-2.2-1.1-3.8-1.6
		c-1.6-0.5-3.1-0.8-4.7-0.8c-3.6,0-6.6,0.9-9.2,2.7C879.9,513.6,878.6,515.6,878.6,517.9z"/>
	<path fill="#2C3E50" d="M924.4,545.1c-4.5-4.4-6.8-9.8-6.8-16.1s2.3-11.7,6.8-16.1c4.5-4.4,10.1-6.6,16.5-6.6
		c5.3,0,10.2,1.6,14.5,4.9c0.3,0.3,0.5,0.7,0.6,1.1c0.1,0.4-0.1,0.8-0.3,1.1c-0.3,0.4-0.6,0.6-1,0.6c-0.4,0-0.8-0.1-1.1-0.3
		c-3.7-2.9-7.9-4.3-12.6-4.3c-5.6,0-10.4,1.9-14.3,5.7s-5.9,8.5-5.9,13.9c0,5.4,2,10.1,5.9,13.8c3.9,3.8,8.5,5.7,13.7,5.7
		s9.6-1.4,13-4.3c0.4-0.3,0.8-0.4,1.2-0.3c0.4,0.1,0.8,0.3,1,0.7c0.3,0.3,0.4,0.7,0.4,1.1c0,0.5-0.2,0.8-0.6,1.1
		c-4.2,3.2-9.1,4.8-14.5,4.8C934.4,551.7,928.9,549.5,924.4,545.1z"/>
	<path fill="#2C3E50" d="M1036.1,533.6v-25.2c0-0.4,0.1-0.8,0.4-1.1c0.3-0.3,0.7-0.4,1.1-0.4s0.8,0.1,1.1,0.4
		c0.3,0.3,0.5,0.7,0.5,1.1v25.2c0,4.1,1.5,7.7,4.4,10.6c2.9,2.9,6.4,4.3,10.6,4.4c4.2,0,7.8-1.5,10.7-4.4c2.9-2.9,4.4-6.4,4.4-10.6
		v-25.2c0-0.4,0.1-0.8,0.4-1.1c0.3-0.3,0.7-0.4,1.1-0.4s0.8,0.1,1.1,0.4c0.3,0.3,0.5,0.7,0.5,1.1v25.2c0,5-1.8,9.3-5.3,12.8
		c-3.5,3.5-7.9,5.3-12.8,5.3c-5,0-9.3-1.8-12.8-5.3C1037.8,542.8,1036.1,538.6,1036.1,533.6z"/>
	<path fill="#2C3E50" d="M1090,517.9c0.1,4.2,4.4,7.2,13,8.9h0.1c4.9,0.9,8.8,2.2,11.4,4.1c3.3,2.1,4.9,4.9,4.9,8.5
		c0,3.5-1.6,6.4-4.9,8.9c-3.3,2.4-7.1,3.6-11.6,3.6c-5.6,0-11.2-2.2-16.5-6.4c-0.7-0.6-0.7-1.3-0.2-2c0.3-0.3,0.6-0.5,1-0.5
		s0.7,0.1,1,0.3c4.8,3.9,9.8,5.8,14.7,5.7c3.9,0,7.2-1,9.9-2.9c2.5-1.8,3.8-4,3.8-6.6c0-4.7-4.6-8.1-14-9.8h-0.1
		c-10.2-1.9-15.2-5.7-15.2-11.6c0-3.3,1.5-6.1,4.5-8.4s6.6-3.3,10.9-3.3c1.8,0,3.7,0.3,5.5,0.9c1.8,0.6,3.3,1.2,4.3,1.8
		s2.3,1.4,3.9,2.4c0.8,0.5,0.9,1.2,0.4,2c-0.5,0.8-1.1,0.9-1.9,0.4c-1.5-1-2.8-1.7-3.7-2.3c-1-0.6-2.2-1.1-3.8-1.6
		c-1.6-0.5-3.1-0.8-4.7-0.8c-3.6,0-6.6,0.9-9.2,2.7C1091.2,513.6,1090,515.6,1090,517.9z"/>
	<path fill="#2C3E50" d="M1161.5,551.7l-0.6,0.1c-0.7,0-1.2-0.3-1.5-1l-3.9-10.6H1135l-3.9,10.6c-0.3,0.7-0.7,1-1.5,1l-0.6-0.1
		c-0.4-0.2-0.7-0.5-0.9-0.9c-0.2-0.4-0.2-0.8,0-1.2l15.6-41.6c0.3-0.6,0.8-1,1.6-1c0.8,0,1.3,0.3,1.5,1l15.6,41.6
		c0.2,0.4,0.2,0.8,0,1.2C1162.1,551.2,1161.8,551.5,1161.5,551.7z M1145.3,512.9l-9.1,24.1h18.1L1145.3,512.9z"/>
</g>
<path fill="#2C3E50" d="M996.3,552.3c-12.7,0-23-10.3-23-23c0-12.7,10.3-23,23-23c12.7,0,23,10.3,23,23
	C1019.2,542,1008.9,552.3,996.3,552.3z M996.3,509c-11.2,0-20.3,9.2-20.3,20.3c0,11.2,9.2,20.3,20.3,20.3c11.2,0,20.3-9.2,20.3-20.3
	C1016.7,518.2,1007.5,509,996.3,509z"/>
<path fill="#2C3E50" d="M989.7,544.4h-0.1l-1.9-0.2c-0.2,0-0.4-0.1-0.6-0.2l-1.3-1c-0.3-0.3-2.4-2.6-2.6-5.4c-0.1-0.7,0-1.5,0-2.2
	c0-1.2,0-2.5-0.4-2.9c-0.2-0.2-0.5-0.4-0.8-0.6c-0.8-0.5-2-1.1-2.2-3.3c-0.1-0.5-0.1-1-0.2-1.5c-0.2-1.1-0.4-2.3,0.2-3.4h-0.1
	c-0.4,0-0.7-0.2-1-0.5l-0.2-0.3c-0.1-0.1-0.2-0.3-0.2-0.4l-0.1-0.3l-0.4-0.1c-0.3-0.1-0.6-0.2-0.8-0.5l-0.6-0.9
	c-0.1-0.2-0.2-0.5-0.2-0.7v-0.3c0-0.7,0.6-1.4,1.4-1.3c0.1-0.1,0.1-0.2,0.2-0.3l0.1-0.2c0.2-0.3,0.3-0.5,0.5-0.7
	c0.1-0.1,0.1-0.2,0.2-0.3c0.1-0.3,0.2-0.5,0.4-0.8c0.1-0.2,0.8-1,0.8-1c0.1-0.2,0.3-0.3,0.5-0.4c0.7-0.3,1.2-0.3,1.5-0.2v-0.2
	c0.1-0.6,0.7-1,1.2-1h0.1l0.7-0.4c0-0.4,0.2-0.9,0.6-1.1c0.3-0.2,0.7-0.2,1-0.2l0,0c0.1-0.2,0.3-0.3,0.5-0.4l0.8-0.4
	c0.2-0.1,0.4-0.1,0.5-0.1h0.7c0-0.1,0-0.1,0-0.2c0.2-1.1,0.9-1.4,1.1-1.4c0,0,0,0,0.1,0l0,0c0-0.4,0.2-0.8,0.5-1
	c0.2-0.2,0.5-0.4,1.1-0.4l0.1-0.1c0.5-0.5,1.3-0.4,1.8,0.1l0.5,0.6c0.4,0.4,0.4,1,0.2,1.5c-0.2,0.3-0.4,0.5-0.8,0.6l0,0
	c0.1,0.5-0.1,1.1-0.4,1.5c-0.6,0.7-1.5,0.8-1.7,0.8c-0.1,0-0.3,0-0.4,0c-0.2,0.5-0.7,0.8-1.2,0.8h-1.4l-0.3,0.1l-0.4,0.5
	c-0.2,0.2-0.4,0.4-0.7,0.5c-0.1,0.3-0.4,0.5-0.7,0.7l-1.6,0.8c-0.1,0.2-0.2,0.4-0.2,0.6c0,0.1,0,0.6,0,0.6c0,0.5-0.3,1-0.7,1.2
	c-0.1,0-0.2,0.1-0.3,0.1c-0.4,0.2-0.8,0.2-1.1,0.1c0,0.3,0,0.6-0.1,0.8c0.1,0.2,0.2,0.3,0.2,0.4c0.7-0.3,1.3-0.3,1.5-0.3l0,0
	c0.3-0.4,0.6-0.5,0.8-0.6c0.9-0.2,1.5,0.6,1.6,0.8c0.1,0.1,0.1,0.2,0.2,0.3c0.3,0,0.5,0,0.8,0.1c0.4,0,1,0.1,1.5,0.6
	c0.1,0.1,0.2,0.2,0.2,0.3c0.2,0,0.5,0.1,0.7,0.2c0.2,0.1,0.2,0.1,0.5,0.3c0.3,0,0.8-0.1,1.3,0.3c0.3,0.2,0.5,0.7,0.6,1.1
	c0,0.1,0,0.3,0,0.4c0.2,0,0.3,0.1,0.5,0.2c0.3,0.1,0.8,0.1,1.2,0.6l0.1,0.1c0.1,0.1,0.2,0.1,0.3,0.2c0,0,0.1,0,0.2-0.1
	c0.4-0.1,1-0.1,1.6,0.3l0,0c0.6,0,1.1,0.2,1.5,0.8l0.2,0.3c0.2,0.2,0.2,0.3,0.3,0.6c0.3,0.7,0.3,1-1.9,3.6l0.3,0.9
	c0.1,0.4,0,0.8-0.2,1.1l-0.8,1.1c-0.2,0.3-0.8,1-1.5,1.1c-0.2,0.1-0.6,0.4-0.9,0.6v0.7c0,0.3-0.1,0.5-0.2,0.7l-0.7,1
	c-0.1,0.1-0.2,0.3-0.3,0.3c0,0-0.3,0.2-0.5,0.3c0,0.1-0.1,0.2-0.2,0.3s-0.2,0.3-0.2,0.4c-0.2,0.5-0.7,0.8-1,0.9c0,0.1,0,0.1-0.1,0.2
	c0.2,0.2,0.3,0.5,0.3,0.8v0.3l0.1,0.1c0.1,0.1,0.2,0.2,0.3,0.3l0.8,1.2c0.3,0.4,0.3,1,0,1.4C990.6,544.2,990.2,544.4,989.7,544.4z
	 M982.7,522.1c0,0.1,0,0.1,0.1,0.2c0.2,0.7,0,1.5-0.8,2.3c-0.3,0.3-0.3,0.7-0.1,2c0.1,0.5,0.2,1.1,0.3,1.7c0.1,0.8,0.3,0.9,0.9,1.3
	c0.4,0.2,0.8,0.5,1.3,0.9c1.2,1.1,1.2,2.9,1.2,4.8c0,0.6,0,1.3,0,2c0.1,0.8,0.4,1.7,0.8,2.3v-0.1c0,0,0.2-0.5,0.2-0.7
	c0.1-0.4,0.3-0.8,0.5-1.1c0.2-0.3,0.6-0.5,0.8-0.6c0.1-0.1,0.1-0.2,0.2-0.3l0.2-0.3c0.1-0.3,0.3-0.5,1.1-1.1l0.3-0.4v-0.9
	c0-0.4,0.2-0.8,0.5-1c1.3-1.1,2-1.4,2.4-1.5l0.4-0.6l-0.3-1c-0.1-0.4,0-0.9,0.3-1.2c0.5-0.6,1-1.2,1.4-1.7c-0.2-0.1-0.3-0.2-0.5-0.3
	c-0.3,0-0.5,0-0.8,0c-0.6-0.1-0.9-0.2-1.1-0.4c-0.2-0.1-0.5-0.2-0.7-0.5c-0.2,0-0.4-0.1-0.7-0.2c-0.1,0-0.1,0-0.2,0
	c-1.3,0.3-1.7-0.5-1.8-0.8c-0.1-0.3-0.1-0.6,0-1l0,0c-0.5-0.2-0.6-0.3-0.7-0.3c-0.5,0.1-1.1-0.1-1.4-0.6c0-0.1-0.1-0.2-0.2-0.3
	c-0.2,0-0.4,0-0.5-0.1c-0.4,0-0.5,0-0.7,0c-0.3,0-0.7-0.1-1.1-0.3c-0.3,0.1-0.5,0-0.8,0c-0.1,0-0.2-0.1-0.3-0.2
	C983,522,982.9,522,982.7,522.1z"/>
<path fill="#2C3E50" d="M1013.8,540.8h-1.2c-0.7,0-1.3-0.6-1.3-1.3v-0.8c0-0.4,0.1-0.8,0.3-1.1v-0.4c0-0.3,0.1-0.6,0.3-0.9
	c0.1-0.1,0.3-0.3,0.4-0.4c-0.2-0.3-0.3-0.5-0.4-0.8c-0.1-0.5,0-1,0-1.3c0.1-0.3,0.2-0.9,0.2-0.9c0-0.2,0.1-0.3,0.3-0.5l0.2-0.3
	c-0.3-0.6-0.3-0.8-0.3-1c0-0.3,0.1-0.5,0.4-1l-0.5-1.7c0-0.1-0.1-0.3-0.1-0.4v-1.3l-0.4-0.3c-0.1,0-0.1,0-0.2-0.1
	c-0.4,0.1-0.8,0-1,0c-0.6-0.2-1.1-0.3-1.5-0.6c-0.3,0-0.6,0-0.6,0c-1.5-0.3-1.8-0.5-2.1-0.8c-0.2-0.2-0.2-0.4-0.5-1.2
	c-0.1-0.2-0.2-0.5-0.2-0.7c-0.3-0.3-0.7-0.7-1.3-1.4c-0.2-0.3-0.4-0.6-0.3-1l0.1-0.8l0.4-2.1c0-0.1,0.1-0.2,0.1-0.3l0.6-1.1
	c0.1-0.1,0.1-0.2,0.2-0.3c-0.1-0.1-0.3-0.2-0.4-0.3c-0.8-0.9-0.9-1.2-0.9-1.4c-0.1-0.5,0.1-0.9,0.2-1.1c0,0,0,0,0-0.1l-0.8-0.2
	c-0.4-0.1-0.8-0.4-0.9-0.8c0-0.1-0.1-0.2-0.1-0.3h-0.7c-0.5,0-0.9-0.3-1.1-0.7c-0.2-0.4-0.2-0.9,0-1.3l0.5-0.8
	c0.4-0.6,1.2-0.8,1.8-0.4c0.3,0.2,0.5,0.4,0.5,0.7h0.1l1.1,0.4c0.4,0.1,0.7,0.5,0.8,0.8c0,0.1,0,0.1,0,0.2l0,0
	c0.9,0.2,1.5,0.6,1.7,1.2c0.1,0.3,0,0.6-0.1,0.9c0.5-0.4,1.1-0.4,1.3-0.4c0.3,0,0.3,0,2.8,1c0.2,0.1,0.3,0.1,0.4,0.3l1.9,1.8
	c0.3,0.3,0.4,0.7,0.4,1.1c0,0.4-0.3,0.8-0.6,1c-0.6,0.4-1.5,0.9-2.2,0.5c-0.4-0.1-1.7-0.3-2.8-0.4l-1.3,0.3l-0.2,0.5l-0.4,2
	c0.3,0.3,0.6,0.7,0.8,0.9c0.4,0.3,0.6,0.8,0.9,1.7c0,0.1,0,0.1,0.1,0.2c0.1,0,0.2,0.1,0.3,0.1c0.7,0,1.4,0.1,1.9,0.5
	c0.2,0.1,0.6,0.2,0.6,0.2c-0.1,0,0,0,0.1,0s0.6-0.2,1.6,0.2c0.1,0,0.2,0.1,0.3,0.1l1.1,0.7c0.4,0.2,0.6,0.6,0.6,1.1v1.8l0.7,2.1
	c0.1,0.4,0.1,0.8-0.2,1.1c0,0-0.1,0.1-0.1,0.2c0.1,0.3,0.2,0.5,0.2,0.5c0.2,0.4,0.1,1-0.2,1.3l-0.6,0.7c0,0.1-0.1,0.2-0.1,0.3
	c0,0.3-0.1,0.4-0.1,0.5c0.3,0.4,0.7,0.8,0.6,1.5l1.2-2c0.4-0.6,1.2-0.8,1.8-0.4c0.6,0.4,0.8,1.1,0.4,1.8l-2.3,3.8
	c-0.1,0.1-0.2,0.2-0.3,0.3l-1.2,1.1C1014.4,540.6,1014.1,540.8,1013.8,540.8z"/>
<path fill="#2C3E50" d="M989.7,551.2c-0.5,0-0.9-0.3-1.1-0.7c-0.3-0.6-0.1-1.4,0.6-1.7l3.4-1.7c0.2-0.1,0.4-0.1,0.7-0.1
	c2,0.2,3.1,0.3,3.6,0.5c0.2,0,0.4,0,0.6,0l1.9-0.4c1.8-0.1,2,0,2.2,0c0.2,0,1.4,0.1,1.4,0.1c0.1,0,0.2,0,0.3,0.1l2.3,0.7
	c0.7,0.2,1,0.9,0.8,1.6c-0.2,0.7-0.9,1-1.6,0.8l-2.1-0.7c-1.5-0.2-1.7-0.2-1.8-0.2c-0.1,0-1,0.1-1,0.1l-1.8,0.4
	c-0.7,0.1-1.5,0.1-2.1-0.1c-0.4-0.1-1.5-0.2-2.4-0.3l-3.1,1.6C990.1,551.2,989.9,551.2,989.7,551.2z"/>
</svg>
