<?xml version="1.0" encoding="utf-8"?>
<!-- Generator: Adobe Illustrator 18.1.1, SVG Export Plug-In . SVG Version: 6.00 Build 0)  -->
<!DOCTYPE svg PUBLIC "-//W3C//DTD SVG 1.1//EN" "http://www.w3.org/Graphics/SVG/1.1/DTD/svg11.dtd">
<svg version="1.1" id="Layer_1" xmlns="http://www.w3.org/2000/svg" xmlns:xlink="http://www.w3.org/1999/xlink" x="0px" y="0px"
	 width="100px" height="59.1px" viewBox="0 21.9 100 59.1" enable-background="new 0 21.9 100 59.1" xml:space="preserve">
<g>
	<g enable-background="new    ">
		<path fill="#FFFFFF" d="M14.8,57.4V38.3h4v19.2c0,3,3.3,4.5,6.2,4.5c2.9,0,6.1-1.5,6.1-4.5V38.3h4v19.2c0,5.6-5.4,8.5-10.1,8.5
			C20.1,65.9,14.8,63,14.8,57.4z"/>
		<path fill="#FFFFFF" d="M41.2,42.2c2.4-2.5,5.8-4.1,9.5-4.1c6.3,0,11.2,3.9,12.8,10.1h-3.9c-1.5-4.1-4.8-6.2-8.9-6.2
			c-2.6,0-5,1.1-6.7,2.9c-1.7,1.8-2.8,4.2-2.8,7.1c0,2.7,1.1,5.2,2.8,7c1.7,1.8,4.1,2.9,6.7,2.9c4.2,0,7.7-2.4,9.1-6.5h3.9
			c-1.6,6.2-6.6,10.5-13,10.5c-3.7,0-7.1-1.6-9.5-4.1c-2.4-2.5-3.9-6-3.9-9.8C37.3,48.1,38.8,44.7,41.2,42.2z"/>
		<path fill="#FFFFFF" d="M80.6,45.3c-0.5-2.5-3.2-3.5-5.6-3.5c-1.8,0-3.9,0.7-5,2.1c-0.5,0.7-0.7,1.6-0.7,2.5
			c0.2,2.8,3.3,3.2,6.2,3.4c3.8,0.5,8.4,1.5,9.5,5.8c0.1,0.6,0.2,1.3,0.2,1.8c0,5.3-5.3,8.3-10.2,8.3c-4.2,0-9.4-2.5-9.9-7.4l0-0.7
			l4-0.1l0,0.6v-0.2c0.3,2.5,3.4,3.9,5.9,3.9c2.9,0,6.2-1.6,6.2-4.5c0-0.3,0-0.6-0.1-0.9c-0.5-2.1-3.3-2.4-6-2.7
			c-4.3-0.4-9.3-1.4-9.7-7.1v0c-0.2-1.8,0.3-3.7,1.5-5.2c1.8-2.4,5.1-3.6,8.3-3.6c4.2,0,8.6,2.2,9.3,7.2L80.6,45.3z"/>
	</g>
	<g>
		<path fill="#FFFFFF" d="M0.6,80.3V22.7h13.2v4H5.6v49.7h8.2v4L0.6,80.3L0.6,80.3z"/>
	</g>
	<g>
		<path fill="#FFFFFF" d="M86.2,80.3v-4h8.2V26.6h-8.2v-4h13.2v57.6H86.2V80.3z"/>
	</g>
</g>
</svg>
