<?xml version="1.0" encoding="utf-8"?>
<!-- Generator: Adobe Illustrator 18.1.1, SVG Export Plug-In . SVG Version: 6.00 Build 0)  -->
<!DOCTYPE svg PUBLIC "-//W3C//DTD SVG 1.1//EN" "http://www.w3.org/Graphics/SVG/1.1/DTD/svg11.dtd">
<svg version="1.1" id="Layer_1" xmlns="http://www.w3.org/2000/svg" xmlns:xlink="http://www.w3.org/1999/xlink" x="0px" y="0px"
	 width="100px" height="100px" viewBox="0 0 100 100" enable-background="new 0 0 100 100" xml:space="preserve">
<path fill="#FFFFFF" d="M50,99.9C22.5,99.9,0.1,77.5,0.1,50C0.1,22.5,22.5,0.1,50,0.1S99.9,22.5,99.9,50
	C99.9,77.5,77.5,99.9,50,99.9z M50,3.1C24.2,3.1,3.1,24.2,3.1,50c0,25.8,21,46.9,46.9,46.9s46.9-21,46.9-46.9
	C96.9,24.2,75.8,3.1,50,3.1z"/>
<g>
	<path fill="#FFFFFF" d="M26.9,43.3v-3.6h46.1v3.6H26.9z M26.9,60.3v-3.6h46.1v3.6H26.9z"/>
</g>
</svg>
